<?xml version="1.0" standalone="no"?>
<!DOCTYPE svg PUBLIC "-//W3C//DTD SVG 20010904//EN"
 "http://www.w3.org/TR/2001/REC-SVG-20010904/DTD/svg10.dtd">
<svg version="1.0" xmlns="http://www.w3.org/2000/svg"
 width="640.000000pt" height="421.000000pt" viewBox="0 0 640.000000 421.000000"
 preserveAspectRatio="xMidYMid meet">

<g transform="translate(0.000000,421.000000) scale(0.100000,-0.100000)"
fill="#000000" stroke="none">
<path d="M0 2105 l0 -2105 3200 0 3200 0 0 2105 0 2105 -3200 0 -3200 0 0
-2105z m1257 1889 c15 -23 15 -29 2 -52 -42 -74 -140 -18 -99 58 17 31 75 28
97 -6z m145 9 c32 -28 23 -70 -21 -93 -20 -10 -27 -9 -50 7 -32 24 -38 58 -15
84 21 23 61 25 86 2z m158 -3 c41 -76 -57 -132 -99 -58 -13 23 -13 29 2 52 22
34 80 37 97 6z m4740 -464 c0 -443 -1 -474 -17 -478 -39 -10 -131 -9 -138 1
-4 8 18 11 69 11 l76 0 0 465 0 465 -785 0 c-432 0 -786 -1 -787 -2 -1 -2 -5
-167 -8 -368 l-5 -365 -3 366 c-1 201 1 369 5 372 3 4 363 7 800 7 l793 0 0
-474z m-1436 351 c9 -15 7 -21 -8 -32 -35 -26 -74 13 -44 43 16 16 38 12 52
-11z m145 9 c6 -7 9 -20 5 -29 -15 -39 -72 -19 -60 21 8 25 38 29 55 8z m149
-10 c5 -26 -26 -50 -45 -35 -14 12 -17 41 -6 53 13 13 48 1 51 -18z m65 -183
c-68 -2 -178 -2 -245 0 -68 1 -13 3 122 3 135 0 190 -2 123 -3z m390 0 c-40
-2 -107 -2 -150 0 -43 1 -10 3 72 3 83 0 118 -2 78 -3z m-505 -120 c-32 -2
-84 -2 -115 0 -32 2 -6 3 57 3 63 0 89 -1 58 -3z m280 0 c-32 -2 -86 -2 -120
0 -35 2 -9 3 57 3 66 0 94 -1 63 -3z m435 0 c-62 -2 -164 -2 -225 0 -62 1 -12
3 112 3 124 0 174 -2 113 -3z m-3516 -107 c127 -8 197 -17 207 -25 36 -30 49
-116 43 -281 -12 -299 -62 -496 -150 -597 -40 -45 -80 -65 -147 -72 l-54 -6
-9 -45 c-9 -52 -2 -127 14 -146 13 -15 0 -63 -37 -134 -49 -96 -135 -159 -217
-160 -53 0 -151 35 -215 77 -61 41 -200 176 -220 215 -13 23 -11 29 25 77 50
66 104 212 137 372 36 173 36 170 -16 163 -37 -5 -46 -2 -67 20 -49 53 -34
205 23 235 34 19 59 7 85 -39 25 -45 30 -46 70 -25 48 24 90 89 140 215 27 67
59 132 71 145 28 30 36 30 317 11z m3311 -11 c3 -3 -88 -5 -202 -5 -114 0
-205 3 -203 8 5 8 397 5 405 -3z m-2507 -69 c-16 -19 -41 -10 -41 14 0 24 21
31 39 14 11 -10 12 -16 2 -28z m69 14 c0 -23 -13 -32 -34 -24 -19 7 -21 25 -5
41 16 16 39 5 39 -17z m61 -14 c-16 -19 -41 -10 -41 14 0 24 21 31 39 14 11
-10 12 -16 2 -28z m162 -77 c0 -8 -18 -62 -39 -121 -29 -83 -42 -108 -56 -108
-10 0 -18 5 -18 12 0 17 71 211 83 226 12 16 33 10 30 -9z m-133 -62 c0 -17
-9 -26 -37 -36 l-37 -14 37 -14 c28 -12 37 -21 37 -39 0 -13 -2 -24 -5 -24 -3
0 -35 13 -71 30 -81 36 -81 54 -4 92 68 33 80 34 80 5z m238 -3 c48 -21 62
-32 62 -48 0 -20 -14 -28 -127 -73 -9 -3 -13 4 -13 20 0 20 7 28 35 37 40 13
38 25 -5 35 -23 5 -30 12 -30 31 0 30 1 30 78 -2z m-2334 -305 c9 -59 6 -680
-4 -704 -5 -11 -9 146 -9 358 l-1 377 -550 0 -550 0 0 -675 0 -675 293 -3 292
-2 -297 -3 -298 -2 0 678 c0 373 3 682 7 685 3 4 255 7 558 7 l552 0 7 -41z
m-976 -68 c21 -13 11 -55 -15 -59 -26 -4 -41 31 -23 53 14 17 20 18 38 6z
m156 -14 c8 -12 7 -21 -5 -32 -21 -21 -49 -9 -49 20 0 36 34 44 54 12z m142 9
c15 -12 17 -18 8 -33 -14 -23 -43 -23 -57 -1 -8 12 -7 21 2 32 16 20 22 20 47
2z m82 -253 c-64 -2 -172 -2 -240 0 -68 1 -15 3 117 3 132 0 187 -2 123 -3z
m-121 -120 c-31 -2 -83 -2 -115 0 -31 2 -5 3 58 3 63 0 89 -1 57 -3z m61 -120
c-53 -2 -143 -2 -200 0 -57 1 -13 3 97 3 110 0 156 -2 103 -3z m332 -113 c0
-6 -98 -10 -275 -10 -177 0 -275 4 -275 10 0 6 98 10 275 10 177 0 275 -4 275
-10z m-210 -119 c-63 -4 -119 -3 -124 1 -6 5 46 7 115 6 l124 -2 -115 -5z
m-62 -118 c-64 -2 -172 -2 -240 0 -68 1 -15 3 117 3 132 0 187 -2 123 -3z
m1052 -1066 c49 -100 100 -193 115 -207 34 -32 110 -148 141 -214 25 -53 32
-106 14 -106 -5 0 -10 -16 -10 -35 0 -38 -10 -44 -30 -20 -9 11 -16 13 -24 5
-5 -5 -25 -10 -43 -10 -24 0 -31 -4 -27 -14 13 -34 -29 -36 -621 -36 -679 0
-630 -7 -703 104 -68 104 -78 199 -31 290 24 47 48 69 104 99 36 20 55 22 185
22 176 -1 241 -13 489 -95 100 -33 187 -60 192 -60 6 0 39 25 75 55 35 30 86
67 112 81 26 15 48 29 50 30 2 1 -24 56 -57 123 -58 115 -69 149 -54 164 21
22 41 -8 123 -176z m4660 -312 l0 -325 -80 0 -80 0 0 325 0 325 80 0 80 0 0
-325z m-352 253 c-2 -13 -10 -23 -18 -23 -8 0 -16 10 -18 23 -3 17 2 22 18 22
16 0 21 -5 18 -22z m72 3 c0 -27 -19 -36 -37 -18 -18 18 -9 37 18 37 12 0 19
-7 19 -19z m63 5 c7 -17 -18 -40 -33 -31 -5 3 -10 15 -10 26 0 23 35 27 43 5z
m-3 -96 c0 -6 -40 -10 -100 -10 -60 0 -100 4 -100 10 0 6 40 10 100 10 60 0
100 -4 100 -10z m0 -75 c0 -16 -412 -13 -418 3 -3 10 40 12 207 10 132 -2 211
-7 211 -13z m-235 -75 c-3 -5 -46 -10 -96 -10 -53 0 -89 4 -89 10 0 6 39 10
96 10 61 0 93 -4 89 -10z m0 -75 c0 -6 -39 -11 -92 -13 -79 -2 -93 0 -93 13 0
13 14 15 93 13 53 -2 92 -7 92 -13z"/>
<path d="M2081 3230 c-31 -7 -54 -27 -46 -40 2 -3 45 -5 96 -5 81 0 94 2 97
17 6 33 -68 47 -147 28z"/>
<path d="M2350 3214 c-24 -28 7 -40 93 -36 59 3 77 7 77 18 0 33 -145 49 -170
18z"/>
<path d="M2117 3076 c-10 -26 4 -47 27 -44 15 2 21 10 21 28 0 29 -38 41 -48
16z"/>
<path d="M2430 3075 c-18 -22 -3 -57 23 -53 37 5 33 67 -4 68 -4 0 -12 -7 -19
-15z"/>
<path d="M2171 2434 c0 -11 3 -14 6 -6 3 7 2 16 -1 19 -3 4 -6 -2 -5 -13z"/>
</g>
</svg>
