<svg xmlns="http://www.w3.org/2000/svg" xmlns:xlink="http://www.w3.org/1999/xlink" width="170" zoomAndPan="magnify" viewBox="0 0 127.5 127.499994" height="170" preserveAspectRatio="xMidYMid meet" version="1.0"><defs><clipPath id="4286700109"><path d="M 1.015625 8.285156 L 112 8.285156 L 112 118.851562 L 1.015625 118.851562 Z M 1.015625 8.285156 " clip-rule="nonzero"/></clipPath><clipPath id="1c51b1fbd0"><path d="M 67 20 L 125.773438 20 L 125.773438 71 L 67 71 Z M 67 20 " clip-rule="nonzero"/></clipPath></defs><g clip-path="url(#4286700109)"><path fill="#000000" d="M 26.929688 13.726562 C 26.929688 13.726562 51.863281 0.121094 73.195312 16.511719 L 61.257812 57.652344 C 61.257812 57.652344 47.898438 48.425781 37.980469 49.417969 C 28.058594 50.414062 14.992188 55.179688 14.992188 55.179688 Z M 12.890625 62.429688 C 12.890625 62.429688 26.273438 56.183594 37.386719 56.980469 C 48.496094 57.773438 57.367188 63.773438 59.28125 65.152344 L 47.21875 106.722656 C 47.21875 106.722656 33.8125 97.972656 24.289062 98.769531 C 14.765625 99.566406 6.511719 101.019531 1.015625 103.875 Z M 65.527344 69.175781 C 65.527344 69.175781 78.253906 77.476562 86.589844 77.277344 C 94.796875 77.082031 100.476562 76.433594 111.617188 72.054688 C 111.703125 72.019531 111.929688 71.855469 111.855469 71.90625 C 111.617188 72.054688 99.917969 113.101562 99.917969 113.101562 C 99.917969 113.101562 86.789062 119.265625 74.882812 118.667969 C 62.976562 118.070312 55.828125 111.242188 53.648438 110.378906 Z M 65.527344 69.175781 " fill-opacity="1" fill-rule="nonzero"/></g><g clip-path="url(#1c51b1fbd0)"><path fill="#000000" d="M 79.507812 20.851562 L 67.542969 61.757812 C 67.542969 61.757812 77.261719 71.308594 90.953125 70.511719 C 104.644531 69.714844 112.085938 65.386719 113.894531 64.777344 L 125.773438 23.511719 C 125.773438 23.511719 110 30.117188 99.683594 28.921875 C 89.367188 27.730469 82.941406 23.328125 79.507812 20.851562 Z M 79.507812 20.851562 " fill-opacity="1" fill-rule="nonzero"/></g></svg>