<?xml version="1.0" encoding="utf-8"?>
<!-- Generator: Adobe Illustrator 24.3.0, SVG Export Plug-In . SVG Version: 6.00 Build 0)  -->
<svg version="1.1" id="Layer_1" xmlns="http://www.w3.org/2000/svg" xmlns:xlink="http://www.w3.org/1999/xlink" x="0px" y="0px"
	 viewBox="0 0 75 75" style="enable-background:new 0 0 75 75;" xml:space="preserve">
<style type="text/css">
	.st0{fill:#FFFFFF;}
</style>
<path class="st0" d="M518.42-60.25c1.62,0,3.25,0,4.87,0c0.9,0.11,1.79,0.2,2.69,0.33c6.6,0.98,12.56,3.47,17.77,7.67
	c7.15,5.78,11.59,13.19,13.24,22.24c0.24,1.33,0.39,2.68,0.57,4.01c0,1.62,0,3.25,0,4.87c-0.05,0.23-0.11,0.46-0.14,0.69
	c-0.21,1.49-0.32,2.99-0.63,4.45c-1.92,8.77-6.37,15.99-13.49,21.47c-8.15,6.27-17.42,8.64-27.59,7.3
	c-6.04-0.79-11.6-2.98-16.45-6.68c-11.49-8.78-16.41-20.45-14.74-34.78c0.78-6.68,3.47-12.66,7.72-17.89
	c5.77-7.09,13.15-11.49,22.15-13.13C515.73-59.91,517.08-60.06,518.42-60.25z M520.89,7.43c17.06-0.04,30.93-13.92,30.94-30.96
	c0.01-17.04-13.97-31.02-30.99-30.98c-17.06,0.04-30.93,13.92-30.94,30.96C489.88-6.51,503.86,7.47,520.89,7.43z"/>
<path class="st0" d="M516.91-17.92c0.22-0.28,0.35-0.52,0.54-0.7c5.43-5.44,10.87-10.87,16.3-16.32c0.9-0.9,1.91-1.34,3.16-0.95
	c1.89,0.59,2.62,2.79,1.47,4.4c-0.19,0.27-0.43,0.51-0.67,0.75c-6.16,6.17-12.32,12.33-18.49,18.49c-1.63,1.63-3.17,1.64-4.78,0.03
	c-2.91-2.9-5.82-5.8-8.71-8.72c-1.39-1.4-1.23-3.48,0.31-4.52c1.18-0.8,2.6-0.66,3.72,0.42c1,0.96,1.96,1.95,2.94,2.93
	C514.07-20.76,515.42-19.41,516.91-17.92z"/>
<g>
	<path class="st0" d="M15.62,61.57c-2.18,0.38-4.26,0.75-6.34,1.11c-2.28,0.4-4.56,0.82-6.84,1.2c-0.76,0.13-1.39-0.16-1.8-0.8
		c-0.46-0.71-0.39-1.43,0.09-2.11c1.81-2.59,3.62-5.17,5.43-7.76c2.1-3,4.19-6,6.31-8.99c0.34-0.47,0.36-0.82,0.09-1.34
		C3.67,25.87,13.61,5.26,32.5,1.51c15.63-3.1,30.96,7.45,33.65,23.13c1.1,6.42,0.15,12.5-2.84,18.27c-0.27,0.53-0.21,0.87,0.11,1.34
		c3.85,5.46,7.68,10.93,11.48,16.42c0.34,0.49,0.58,1.17,0.57,1.76c-0.02,0.99-1.09,1.64-2.15,1.45c-4.2-0.74-8.4-1.49-12.6-2.24
		c-0.11-0.02-0.22-0.01-0.47-0.02c-0.23,1.23-0.46,2.48-0.68,3.73c-0.53,2.99-1.05,5.99-1.57,8.98c-0.15,0.89-0.5,1.63-1.44,1.86
		c-1.02,0.24-1.66-0.33-2.22-1.13c-3.8-5.46-7.62-10.9-11.42-16.36c-0.35-0.5-0.66-0.74-1.33-0.63c-2.47,0.39-4.96,0.36-7.43-0.01
		c-0.58-0.09-0.84,0.09-1.14,0.52c-3.82,5.48-7.65,10.95-11.49,16.41c-0.28,0.4-0.63,0.82-1.04,1.05c-1.05,0.58-2.28-0.07-2.52-1.33
		c-0.53-2.79-1.01-5.6-1.5-8.4C16.19,64.74,15.91,63.18,15.62,61.57z M37.94,4.64c-13.7-0.04-24.97,11.13-25.02,24.79
		c-0.05,14,11.13,25.29,25.06,25.3c13.63,0.02,24.92-11.2,24.97-24.79C63,15.88,51.93,4.68,37.94,4.64z M15.04,46.84
		c-2.96,4.23-5.87,8.38-8.87,12.67c0.51-0.07,0.84-0.11,1.16-0.16c3.08-0.53,6.15-1.08,9.23-1.6c1.35-0.23,2.15,0.35,2.39,1.69
		c0.36,2.03,0.69,4.07,1.05,6.1c0.24,1.35,0.5,2.7,0.78,4.25c3.02-4.31,5.91-8.45,8.87-12.67C23.69,55.21,18.86,51.82,15.04,46.84z
		 M46.22,57.11c2.98,4.24,5.87,8.38,8.89,12.69c0.29-1.7,0.54-3.13,0.79-4.56c0.34-1.95,0.67-3.9,1.03-5.85
		c0.24-1.29,1.04-1.87,2.33-1.66c1.87,0.31,3.73,0.64,5.6,0.97c1.55,0.27,3.11,0.54,4.86,0.84c-3.03-4.33-5.94-8.48-8.89-12.7
		C57.05,51.78,52.23,55.19,46.22,57.11z"/>
	<path class="st0" d="M28.03,40.05c0.34-2.01,0.65-4.25,1.13-6.45c0.25-1.16,0.06-1.94-0.86-2.74c-1.56-1.36-2.97-2.88-4.47-4.3
		c-0.66-0.63-1.05-1.32-0.76-2.23c0.29-0.9,1.06-1.15,1.9-1.27c2.35-0.34,4.69-0.7,7.04-1c0.53-0.07,0.76-0.3,0.97-0.74
		c1.02-2.11,2.08-4.2,3.1-6.31c0.38-0.79,0.89-1.36,1.82-1.38c0.97-0.02,1.5,0.57,1.89,1.39c1.02,2.11,2.08,4.2,3.1,6.31
		c0.21,0.44,0.46,0.66,0.98,0.72c2.38,0.3,4.75,0.67,7.12,1.01c0.82,0.12,1.54,0.41,1.81,1.27c0.27,0.87-0.07,1.56-0.71,2.17
		c-1.74,1.66-3.46,3.33-5.15,5.04c-0.24,0.24-0.39,0.73-0.34,1.06c0.37,2.37,0.8,4.73,1.2,7.09c0.14,0.83,0.11,1.64-0.69,2.18
		c-0.77,0.52-1.52,0.34-2.28-0.07c-2.04-1.09-4.11-2.14-6.14-3.25c-0.56-0.31-0.98-0.28-1.53,0.02c-2.1,1.15-4.23,2.26-6.37,3.35
		C29.36,42.66,27.97,41.83,28.03,40.05z M32.21,37.09c1.62-0.85,3.11-1.6,4.57-2.41c0.79-0.44,1.51-0.44,2.29-0.01
		c1.3,0.71,2.61,1.39,3.92,2.07c0.19,0.1,0.39,0.16,0.67,0.27c-0.3-1.71-0.53-3.26-0.85-4.78c-0.22-1.07,0.08-1.86,0.87-2.62
		c1.14-1.09,2.18-2.3,3.27-3.46c-1.39-0.2-2.88-0.46-4.37-0.62c-1.19-0.12-2.01-0.57-2.51-1.74c-0.6-1.43-1.36-2.78-2.13-4.33
		c-0.61,1.22-1.26,2.23-1.64,3.34c-0.65,1.92-1.9,2.86-3.9,2.85c-0.14,0-0.28,0.01-0.42,0.04c-1.05,0.16-2.1,0.33-2.98,0.46
		c1.12,1.22,2.22,2.45,3.36,3.63c0.59,0.61,0.88,1.23,0.72,2.1C32.78,33.56,32.52,35.24,32.21,37.09z"/>
</g>
</svg>
