<svg xmlns="http://www.w3.org/2000/svg" xmlns:xlink="http://www.w3.org/1999/xlink" width="70" zoomAndPan="magnify" viewBox="0 0 52.5 52.499999" height="70" preserveAspectRatio="xMidYMid meet" version="1.0"><defs><clipPath id="b6f31ac5e1"><path d="M 9 1.148438 L 27 1.148438 L 27 10 L 9 10 Z M 9 1.148438 " clip-rule="nonzero"/></clipPath><clipPath id="b6ea0270e1"><path d="M 37 36 L 52.003906 36 L 52.003906 51.398438 L 37 51.398438 Z M 37 36 " clip-rule="nonzero"/></clipPath></defs><path fill="#595959" d="M 33.226562 48.949219 L 3.117188 48.949219 C 1.398438 48.949219 0 47.550781 0 45.832031 L 0 7.800781 C 0 6.078125 1.398438 4.679688 3.117188 4.679688 L 10.644531 4.679688 C 11.019531 4.679688 11.324219 4.984375 11.324219 5.359375 L 11.324219 7.476562 C 11.324219 7.871094 11.644531 8.195312 12.042969 8.195312 L 24.300781 8.195312 C 24.695312 8.195312 25.019531 7.871094 25.019531 7.476562 L 25.019531 5.363281 C 25.019531 4.984375 25.324219 4.679688 25.699219 4.679688 L 33.226562 4.679688 C 34.945312 4.679688 36.34375 6.082031 36.34375 7.800781 L 36.34375 18.484375 C 36.34375 18.761719 36.175781 19.011719 35.917969 19.117188 C 35.660156 19.21875 35.367188 19.15625 35.175781 18.957031 L 35.160156 18.941406 C 35.121094 18.898438 35.078125 18.859375 35.035156 18.816406 C 30.84375 14.621094 24.019531 14.621094 19.828125 18.816406 C 15.636719 23.015625 15.636719 29.84375 19.828125 34.039062 C 23.183594 37.398438 28.429688 38.152344 32.589844 35.875 C 32.613281 35.863281 32.644531 35.851562 32.671875 35.839844 C 32.695312 35.820312 32.71875 35.804688 32.746094 35.789062 L 32.816406 35.75 C 33.140625 35.558594 33.558594 35.671875 33.746094 35.996094 C 33.808594 36.101562 33.839844 36.222656 33.839844 36.335938 C 33.839844 36.367188 33.835938 36.398438 33.832031 36.429688 L 34.917969 37.515625 C 35.078125 37.679688 35.3125 37.75 35.539062 37.703125 C 35.734375 37.664062 35.941406 37.71875 36.097656 37.847656 C 36.253906 37.976562 36.34375 38.171875 36.34375 38.375 L 36.34375 45.832031 C 36.34375 47.550781 34.945312 48.949219 33.226562 48.949219 Z M 3.117188 6.042969 C 2.148438 6.042969 1.359375 6.832031 1.359375 7.800781 L 1.359375 45.832031 C 1.359375 46.800781 2.148438 47.589844 3.117188 47.589844 L 33.226562 47.589844 C 34.195312 47.589844 34.984375 46.800781 34.984375 45.832031 L 34.984375 39.035156 C 34.597656 38.953125 34.238281 38.765625 33.957031 38.476562 L 32.785156 37.308594 C 30.636719 38.363281 28.175781 38.765625 25.789062 38.441406 C 23.148438 38.082031 20.753906 36.890625 18.867188 35 C 14.144531 30.273438 14.144531 22.582031 18.867188 17.851562 C 23.265625 13.449219 30.230469 13.148438 34.984375 16.945312 L 34.984375 7.800781 C 34.984375 6.832031 34.195312 6.039062 33.226562 6.039062 L 26.378906 6.039062 L 26.378906 7.476562 C 26.378906 8.625 25.445312 9.554688 24.300781 9.554688 L 12.042969 9.554688 C 10.894531 9.554688 9.964844 8.621094 9.964844 7.476562 L 9.964844 6.042969 Z M 3.117188 6.042969 " fill-opacity="1" fill-rule="nonzero"/><path fill="#595959" d="M 28.296875 46.371094 L 3.257812 46.371094 C 2.878906 46.371094 2.574219 46.066406 2.574219 45.691406 L 2.574219 7.941406 C 2.574219 7.5625 2.878906 7.257812 3.257812 7.257812 L 10.722656 7.257812 C 11.011719 7.257812 11.269531 7.441406 11.363281 7.710938 C 11.464844 8 11.738281 8.195312 12.042969 8.195312 L 24.300781 8.195312 C 24.605469 8.195312 24.878906 8 24.980469 7.710938 C 25.074219 7.441406 25.332031 7.257812 25.621094 7.257812 L 33.085938 7.257812 C 33.460938 7.257812 33.765625 7.5625 33.765625 7.941406 L 33.765625 16.476562 C 33.765625 16.71875 33.636719 16.945312 33.429688 17.066406 C 33.21875 17.1875 32.960938 17.1875 32.75 17.066406 C 28.558594 14.675781 23.242188 15.394531 19.828125 18.816406 C 15.632812 23.011719 15.632812 29.839844 19.828125 34.035156 C 23.230469 37.445312 28.523438 38.167969 32.707031 35.804688 C 32.722656 35.800781 32.734375 35.789062 32.746094 35.785156 C 33.074219 35.597656 33.488281 35.710938 33.675781 36.039062 C 33.761719 36.1875 33.785156 36.355469 33.75 36.511719 C 33.761719 36.554688 33.765625 36.597656 33.765625 36.644531 L 33.765625 40.25 C 33.765625 40.414062 33.703125 40.574219 33.59375 40.699219 L 28.804688 46.140625 C 28.679688 46.289062 28.492188 46.371094 28.296875 46.371094 Z M 3.9375 45.011719 L 27.988281 45.011719 L 32.40625 39.992188 L 32.40625 37.488281 C 27.863281 39.53125 22.441406 38.582031 18.867188 35 C 14.140625 30.273438 14.140625 22.582031 18.867188 17.851562 C 22.441406 14.273438 27.863281 13.324219 32.40625 15.367188 L 32.40625 8.621094 L 26.035156 8.621094 C 25.65625 9.195312 25.007812 9.558594 24.300781 9.558594 L 12.042969 9.558594 C 11.335938 9.558594 10.6875 9.195312 10.308594 8.621094 L 3.9375 8.621094 Z M 3.9375 45.011719 " fill-opacity="1" fill-rule="nonzero"/><g clip-path="url(#b6f31ac5e1)"><path fill="#595959" d="M 24.300781 9.558594 L 12.042969 9.558594 C 10.894531 9.558594 9.964844 8.625 9.964844 7.476562 L 9.964844 3.242188 C 9.964844 2.097656 10.898438 1.164062 12.042969 1.164062 L 24.300781 1.164062 C 25.445312 1.164062 26.378906 2.097656 26.378906 3.242188 L 26.378906 7.476562 C 26.378906 8.625 25.445312 9.558594 24.300781 9.558594 Z M 12.042969 2.523438 C 11.644531 2.523438 11.324219 2.847656 11.324219 3.242188 L 11.324219 7.476562 C 11.324219 7.875 11.644531 8.195312 12.042969 8.195312 L 24.300781 8.195312 C 24.695312 8.195312 25.019531 7.875 25.019531 7.476562 L 25.019531 3.242188 C 25.019531 2.847656 24.695312 2.523438 24.300781 2.523438 Z M 12.042969 2.523438 " fill-opacity="1" fill-rule="nonzero"/></g><path fill="#595959" d="M 28.296875 46.371094 C 28.21875 46.371094 28.136719 46.359375 28.058594 46.328125 C 27.792969 46.226562 27.617188 45.976562 27.617188 45.691406 L 27.617188 42.226562 C 27.617188 40.761719 28.808594 39.570312 30.269531 39.570312 L 33.085938 39.570312 C 33.351562 39.570312 33.597656 39.726562 33.707031 39.972656 C 33.816406 40.214844 33.773438 40.5 33.597656 40.703125 L 28.808594 46.140625 C 28.675781 46.289062 28.488281 46.371094 28.296875 46.371094 Z M 30.269531 40.929688 C 29.558594 40.929688 28.976562 41.511719 28.976562 42.226562 L 28.976562 43.886719 L 31.582031 40.929688 Z M 30.269531 40.929688 " fill-opacity="1" fill-rule="nonzero"/><path fill="#595959" d="M 20.867188 6.042969 L 15.472656 6.042969 C 15.097656 6.042969 14.792969 5.738281 14.792969 5.363281 C 14.792969 4.984375 15.097656 4.679688 15.472656 4.679688 L 20.867188 4.679688 C 21.246094 4.679688 21.550781 4.984375 21.550781 5.363281 C 21.550781 5.738281 21.246094 6.042969 20.867188 6.042969 Z M 20.867188 6.042969 " fill-opacity="1" fill-rule="nonzero"/><path fill="#595959" d="M 30.621094 12.933594 L 6.738281 12.933594 C 6.363281 12.933594 6.058594 12.628906 6.058594 12.253906 C 6.058594 11.878906 6.363281 11.574219 6.738281 11.574219 L 30.621094 11.574219 C 31 11.574219 31.304688 11.878906 31.304688 12.253906 C 31.304688 12.628906 31 12.933594 30.621094 12.933594 Z M 30.621094 12.933594 " fill-opacity="1" fill-rule="nonzero"/><path fill="#595959" d="M 18.617188 16.238281 L 6.738281 16.238281 C 6.363281 16.238281 6.058594 15.933594 6.058594 15.558594 C 6.058594 15.183594 6.363281 14.878906 6.738281 14.878906 L 18.617188 14.878906 C 18.992188 14.878906 19.296875 15.183594 19.296875 15.558594 C 19.296875 15.933594 18.992188 16.238281 18.617188 16.238281 Z M 18.617188 16.238281 " fill-opacity="1" fill-rule="nonzero"/><path fill="#595959" d="M 14.71875 19.542969 L 6.738281 19.542969 C 6.363281 19.542969 6.058594 19.238281 6.058594 18.863281 C 6.058594 18.488281 6.363281 18.183594 6.738281 18.183594 L 14.71875 18.183594 C 15.09375 18.183594 15.398438 18.488281 15.398438 18.863281 C 15.398438 19.238281 15.09375 19.542969 14.71875 19.542969 Z M 14.71875 19.542969 " fill-opacity="1" fill-rule="nonzero"/><path fill="#595959" d="M 14.71875 22.847656 L 6.738281 22.847656 C 6.363281 22.847656 6.058594 22.542969 6.058594 22.167969 C 6.058594 21.792969 6.363281 21.488281 6.738281 21.488281 L 14.71875 21.488281 C 15.09375 21.488281 15.398438 21.792969 15.398438 22.167969 C 15.398438 22.542969 15.09375 22.847656 14.71875 22.847656 Z M 14.71875 22.847656 " fill-opacity="1" fill-rule="nonzero"/><path fill="#595959" d="M 14.71875 26.152344 L 6.738281 26.152344 C 6.363281 26.152344 6.058594 25.847656 6.058594 25.472656 C 6.058594 25.097656 6.363281 24.792969 6.738281 24.792969 L 14.71875 24.792969 C 15.09375 24.792969 15.398438 25.097656 15.398438 25.472656 C 15.398438 25.847656 15.09375 26.152344 14.71875 26.152344 Z M 14.71875 26.152344 " fill-opacity="1" fill-rule="nonzero"/><path fill="#595959" d="M 38.691406 40.914062 C 38.511719 40.914062 38.339844 40.84375 38.210938 40.714844 L 35.933594 38.433594 C 35.667969 38.167969 35.667969 37.738281 35.933594 37.472656 L 38.46875 34.9375 C 38.59375 34.808594 38.769531 34.738281 38.949219 34.738281 C 39.128906 34.738281 39.300781 34.808594 39.429688 34.9375 L 41.707031 37.214844 C 41.972656 37.480469 41.972656 37.914062 41.707031 38.179688 L 39.171875 40.714844 C 39.046875 40.84375 38.871094 40.914062 38.691406 40.914062 Z M 37.375 37.953125 L 38.691406 39.273438 L 40.265625 37.699219 L 38.949219 36.378906 Z M 37.375 37.953125 " fill-opacity="1" fill-rule="nonzero"/><g clip-path="url(#b6ea0270e1)"><path fill="#595959" d="M 47.710938 51.378906 C 47.34375 51.378906 47.003906 51.238281 46.746094 50.980469 L 37.832031 42.0625 C 37.300781 41.527344 37.300781 40.660156 37.832031 40.128906 L 41.121094 36.839844 C 41.378906 36.582031 41.722656 36.4375 42.085938 36.4375 C 42.449219 36.4375 42.792969 36.582031 43.050781 36.839844 L 51.960938 45.757812 C 52.492188 46.289062 52.492188 47.15625 51.960938 47.6875 L 48.671875 50.980469 C 48.417969 51.238281 48.074219 51.378906 47.710938 51.378906 Z M 38.792969 41.09375 L 47.707031 50.019531 L 51 46.726562 L 42.089844 37.800781 Z M 38.792969 41.09375 " fill-opacity="1" fill-rule="nonzero"/></g><path fill="#595959" d="M 11.351562 42.304688 C 8.195312 42.304688 5.628906 39.734375 5.628906 36.578125 C 5.628906 33.417969 8.195312 30.847656 11.351562 30.847656 C 14.503906 30.847656 17.070312 33.417969 17.070312 36.578125 C 17.070312 39.734375 14.503906 42.304688 11.351562 42.304688 Z M 11.351562 32.210938 C 8.945312 32.210938 6.988281 34.167969 6.988281 36.578125 C 6.988281 38.984375 8.945312 40.941406 11.351562 40.941406 C 13.757812 40.941406 15.710938 38.984375 15.710938 36.578125 C 15.710938 34.167969 13.753906 32.210938 11.351562 32.210938 Z M 11.351562 32.210938 " fill-opacity="1" fill-rule="nonzero"/><path fill="#595959" d="M 9.097656 39.511719 C 8.925781 39.511719 8.75 39.445312 8.617188 39.3125 C 8.351562 39.046875 8.351562 38.613281 8.617188 38.347656 L 13.121094 33.839844 C 13.386719 33.574219 13.820312 33.574219 14.085938 33.839844 C 14.351562 34.105469 14.351562 34.535156 14.085938 34.804688 L 9.582031 39.3125 C 9.445312 39.445312 9.273438 39.511719 9.097656 39.511719 Z M 9.097656 39.511719 " fill-opacity="1" fill-rule="nonzero"/><path fill="#595959" d="M 13.601562 39.511719 C 13.429688 39.511719 13.253906 39.445312 13.121094 39.3125 L 8.617188 34.804688 C 8.351562 34.535156 8.351562 34.105469 8.617188 33.839844 C 8.882812 33.574219 9.316406 33.574219 9.582031 33.839844 L 14.085938 38.347656 C 14.351562 38.613281 14.351562 39.046875 14.085938 39.3125 C 13.949219 39.445312 13.777344 39.511719 13.601562 39.511719 Z M 13.601562 39.511719 " fill-opacity="1" fill-rule="nonzero"/><path fill="#595959" d="M 27.433594 29.085938 C 27.054688 29.085938 26.75 28.78125 26.75 28.402344 L 26.75 20.5 C 26.75 20.121094 27.054688 19.816406 27.433594 19.816406 C 27.808594 19.816406 28.113281 20.121094 28.113281 20.5 L 28.113281 28.402344 C 28.113281 28.78125 27.808594 29.085938 27.433594 29.085938 Z M 27.433594 29.085938 " fill-opacity="1" fill-rule="nonzero"/><path fill="#595959" d="M 27.433594 33.039062 C 27.054688 33.039062 26.75 32.734375 26.75 32.355469 L 26.75 31.003906 C 26.75 30.628906 27.054688 30.324219 27.433594 30.324219 C 27.808594 30.324219 28.113281 30.628906 28.113281 31.003906 L 28.113281 32.355469 C 28.113281 32.734375 27.808594 33.039062 27.433594 33.039062 Z M 27.433594 33.039062 " fill-opacity="1" fill-rule="nonzero"/><path fill="#595959" d="M 27.433594 36.003906 C 24.980469 36.003906 22.527344 35.070312 20.664062 33.203125 C 16.929688 29.46875 16.929688 23.386719 20.664062 19.652344 C 24.394531 15.914062 30.46875 15.914062 34.203125 19.652344 C 37.933594 23.386719 37.933594 29.46875 34.203125 33.203125 C 32.335938 35.070312 29.882812 36.003906 27.433594 36.003906 Z M 21.625 20.613281 C 18.421875 23.820312 18.421875 29.035156 21.625 32.242188 C 23.222656 33.84375 25.328125 34.644531 27.433594 34.644531 C 29.535156 34.644531 31.636719 33.84375 33.238281 32.242188 C 36.441406 29.035156 36.441406 23.820312 33.238281 20.613281 C 30.039062 17.410156 24.828125 17.410156 21.625 20.613281 Z M 21.625 20.613281 " fill-opacity="1" fill-rule="nonzero"/><path fill="#595959" d="M 27.433594 38.546875 C 24.328125 38.546875 21.226562 37.367188 18.867188 35 C 14.140625 30.273438 14.140625 22.582031 18.867188 17.851562 C 23.589844 13.125 31.273438 13.125 35.996094 17.851562 C 40.722656 22.582031 40.722656 30.273438 35.996094 35 C 33.636719 37.367188 30.535156 38.546875 27.433594 38.546875 Z M 19.828125 18.816406 C 15.632812 23.011719 15.632812 29.84375 19.828125 34.039062 C 21.925781 36.136719 24.679688 37.1875 27.433594 37.1875 C 30.1875 37.1875 32.9375 36.136719 35.035156 34.039062 C 39.230469 29.839844 39.230469 23.011719 35.035156 18.816406 C 30.84375 14.617188 24.019531 14.617188 19.828125 18.816406 Z M 19.828125 18.816406 " fill-opacity="1" fill-rule="nonzero"/><path fill="#595959" d="M 35.402344 39.078125 C 34.878906 39.078125 34.351562 38.878906 33.953125 38.480469 L 32.433594 36.957031 C 32.28125 36.804688 32.210938 36.589844 32.238281 36.378906 C 32.269531 36.164062 32.398438 35.980469 32.585938 35.875 C 33.484375 35.386719 34.308594 34.765625 35.035156 34.039062 C 35.761719 33.3125 36.382812 32.488281 36.871094 31.589844 C 36.972656 31.402344 37.160156 31.273438 37.371094 31.242188 C 37.585938 31.210938 37.796875 31.28125 37.949219 31.433594 L 39.472656 32.957031 C 40.269531 33.757812 40.269531 35.058594 39.472656 35.855469 L 36.851562 38.480469 C 36.453125 38.878906 35.929688 39.078125 35.402344 39.078125 Z M 34.011719 36.609375 L 34.917969 37.515625 C 35.183594 37.785156 35.621094 37.785156 35.890625 37.515625 L 38.507812 34.894531 C 38.777344 34.625 38.777344 34.1875 38.507812 33.917969 L 37.605469 33.015625 C 37.140625 33.730469 36.605469 34.394531 35.996094 35 C 35.390625 35.609375 34.726562 36.144531 34.011719 36.609375 Z M 34.011719 36.609375 " fill-opacity="1" fill-rule="nonzero"/></svg>