<svg xmlns="http://www.w3.org/2000/svg" xmlns:xlink="http://www.w3.org/1999/xlink" width="70" zoomAndPan="magnify" viewBox="0 0 52.5 52.499999" height="70" preserveAspectRatio="xMidYMid meet" version="1.0"><defs><clipPath id="4bd34dd2db"><path d="M 0 0 L 52.003906 0 L 52.003906 52.003906 L 0 52.003906 Z M 0 0 " clip-rule="nonzero"/></clipPath></defs><g clip-path="url(#4bd34dd2db)"><path fill="#595959" d="M 50.75 41.125 C 50.75 43.054688 49.179688 44.625 47.25 44.625 L 35.296875 44.625 C 34.90625 44.625 34.535156 44.75 34.230469 44.992188 L 27.097656 50.460938 C 26.597656 50.84375 25.902344 50.847656 25.398438 50.460938 L 18.273438 44.992188 C 17.964844 44.75 17.59375 44.625 17.203125 44.625 L 5.25 44.625 C 3.320312 44.625 1.75 43.054688 1.75 41.125 L 1.75 13.125 C 1.75 11.195312 3.320312 9.625 5.25 9.625 L 17.871094 9.625 L 12.078125 19.097656 C 11.179688 20.570312 11.140625 22.417969 11.988281 23.925781 C 12.804688 25.382812 14.261719 26.25 15.894531 26.25 L 36.605469 26.25 C 38.238281 26.25 39.695312 25.382812 40.507812 23.925781 C 41.355469 22.417969 41.320312 20.570312 40.421875 19.097656 L 34.628906 9.625 L 47.25 9.625 C 49.179688 9.625 50.75 11.195312 50.75 13.125 Z M 23.925781 3.085938 C 24.445312 2.234375 25.292969 1.75 26.25 1.75 C 27.207031 1.75 28.054688 2.234375 28.574219 3.085938 L 38.925781 20.011719 C 39.507812 20.957031 39.527344 22.101562 38.984375 23.070312 C 38.484375 23.964844 37.59375 24.5 36.605469 24.5 L 15.894531 24.5 C 14.90625 24.5 14.015625 23.964844 13.515625 23.070312 C 12.972656 22.101562 12.992188 20.957031 13.574219 20.011719 Z M 47.25 7.875 L 33.554688 7.875 L 30.066406 2.171875 C 29.234375 0.808594 27.808594 0 26.25 0 C 24.691406 0 23.265625 0.808594 22.433594 2.171875 L 18.945312 7.875 L 5.25 7.875 C 2.355469 7.875 0 10.230469 0 13.125 L 0 41.125 C 0 44.019531 2.355469 46.375 5.25 46.375 L 17.203125 46.378906 L 24.332031 51.84375 C 24.894531 52.28125 25.574219 52.5 26.25 52.5 C 26.925781 52.5 27.601562 52.28125 28.164062 51.847656 L 35.296875 46.375 L 47.25 46.375 C 50.144531 46.375 52.5 44.019531 52.5 41.125 L 52.5 13.125 C 52.5 10.230469 50.144531 7.875 47.25 7.875 " fill-opacity="1" fill-rule="nonzero"/></g><path fill="#595959" d="M 26.25 17.5 C 26.730469 17.5 27.125 17.105469 27.125 16.625 L 27.125 7 C 27.125 6.515625 26.730469 6.125 26.25 6.125 C 25.769531 6.125 25.375 6.515625 25.375 7 L 25.375 16.625 C 25.375 17.105469 25.769531 17.5 26.25 17.5 " fill-opacity="1" fill-rule="nonzero"/><path fill="#595959" d="M 26.25 21.875 C 26.730469 21.875 27.125 21.480469 27.125 21 L 27.125 20.125 C 27.125 19.644531 26.730469 19.25 26.25 19.25 C 25.769531 19.25 25.375 19.644531 25.375 20.125 L 25.375 21 C 25.375 21.480469 25.769531 21.875 26.25 21.875 " fill-opacity="1" fill-rule="nonzero"/><path fill="#595959" d="M 7 30.625 L 35.875 30.625 C 36.355469 30.625 36.75 30.230469 36.75 29.75 C 36.75 29.269531 36.355469 28.875 35.875 28.875 L 7 28.875 C 6.519531 28.875 6.125 29.269531 6.125 29.75 C 6.125 30.230469 6.519531 30.625 7 30.625 " fill-opacity="1" fill-rule="nonzero"/><path fill="#595959" d="M 7 35 L 21.875 35 C 22.355469 35 22.75 34.605469 22.75 34.125 C 22.75 33.644531 22.355469 33.25 21.875 33.25 L 7 33.25 C 6.519531 33.25 6.125 33.644531 6.125 34.125 C 6.125 34.605469 6.519531 35 7 35 " fill-opacity="1" fill-rule="nonzero"/><path fill="#595959" d="M 33.25 37.625 L 7 37.625 C 6.519531 37.625 6.125 38.019531 6.125 38.5 C 6.125 38.980469 6.519531 39.375 7 39.375 L 33.25 39.375 C 33.730469 39.375 34.125 38.980469 34.125 38.5 C 34.125 38.019531 33.730469 37.625 33.25 37.625 " fill-opacity="1" fill-rule="nonzero"/><path fill="#595959" d="M 45.5 28.875 L 39.375 28.875 C 38.894531 28.875 38.5 29.269531 38.5 29.75 C 38.5 30.230469 38.894531 30.625 39.375 30.625 L 45.5 30.625 C 45.980469 30.625 46.375 30.230469 46.375 29.75 C 46.375 29.269531 45.980469 28.875 45.5 28.875 " fill-opacity="1" fill-rule="nonzero"/><path fill="#595959" d="M 45.5 33.25 L 25.375 33.25 C 24.894531 33.25 24.5 33.644531 24.5 34.125 C 24.5 34.605469 24.894531 35 25.375 35 L 45.5 35 C 45.980469 35 46.375 34.605469 46.375 34.125 C 46.375 33.644531 45.980469 33.25 45.5 33.25 " fill-opacity="1" fill-rule="nonzero"/></svg>