<svg xmlns="http://www.w3.org/2000/svg" xmlns:xlink="http://www.w3.org/1999/xlink" width="70" zoomAndPan="magnify" viewBox="0 0 52.5 52.499999" height="70" preserveAspectRatio="xMidYMid meet" version="1.0"><defs><clipPath id="ca2fd77eb5"><path d="M 0 0 L 52.003906 0 L 52.003906 52.003906 L 0 52.003906 Z M 0 0 " clip-rule="nonzero"/></clipPath></defs><g clip-path="url(#ca2fd77eb5)"><path fill="#595959" d="M 51.957031 22.023438 L 48.160156 20.558594 C 47.632812 18.53125 46.832031 16.59375 45.765625 14.78125 L 47.417969 11.0625 C 47.558594 10.742188 47.492188 10.367188 47.242188 10.121094 L 42.378906 5.257812 C 42.132812 5.007812 41.757812 4.941406 41.4375 5.082031 L 37.714844 6.734375 C 35.90625 5.671875 33.96875 4.867188 31.941406 4.339844 L 30.476562 0.542969 C 30.351562 0.214844 30.039062 0 29.6875 0 L 22.8125 0 C 22.460938 0 22.148438 0.214844 22.023438 0.542969 L 20.558594 4.339844 C 18.53125 4.867188 16.59375 5.671875 14.785156 6.734375 L 11.0625 5.082031 C 10.742188 4.941406 10.367188 5.007812 10.121094 5.257812 L 5.257812 10.121094 C 5.007812 10.367188 4.941406 10.742188 5.082031 11.0625 L 6.734375 14.785156 C 5.671875 16.59375 4.867188 18.53125 4.339844 20.558594 L 0.542969 22.023438 C 0.214844 22.148438 0 22.460938 0 22.8125 L 0 29.6875 C 0 30.039062 0.214844 30.351562 0.542969 30.476562 L 4.339844 31.941406 C 4.867188 33.96875 5.667969 35.910156 6.734375 37.71875 L 5.082031 41.4375 C 4.941406 41.757812 5.007812 42.132812 5.257812 42.378906 L 10.121094 47.242188 C 10.367188 47.492188 10.742188 47.558594 11.0625 47.417969 L 14.785156 45.765625 C 16.59375 46.828125 18.53125 47.632812 20.558594 48.160156 L 22.023438 51.957031 C 22.148438 52.285156 22.460938 52.5 22.8125 52.5 L 29.6875 52.5 C 30.039062 52.5 30.351562 52.285156 30.476562 51.957031 L 31.941406 48.160156 C 33.96875 47.632812 35.90625 46.832031 37.71875 45.765625 L 41.4375 47.417969 C 41.757812 47.558594 42.132812 47.492188 42.378906 47.242188 L 47.242188 42.378906 C 47.488281 42.132812 47.558594 41.757812 47.417969 41.4375 L 45.765625 37.714844 C 46.828125 35.90625 47.632812 33.96875 48.160156 31.941406 L 51.957031 30.476562 C 52.285156 30.351562 52.5 30.039062 52.5 29.6875 L 52.5 22.8125 C 52.5 22.460938 52.285156 22.148438 51.957031 22.023438 Z M 50.804688 29.105469 L 47.140625 30.519531 C 46.878906 30.617188 46.683594 30.839844 46.621094 31.113281 C 46.105469 33.269531 45.253906 35.320312 44.089844 37.210938 C 43.945312 37.449219 43.925781 37.746094 44.039062 38 L 45.632812 41.59375 L 41.59375 45.632812 L 38 44.039062 C 37.746094 43.925781 37.453125 43.945312 37.214844 44.089844 C 35.320312 45.257812 33.269531 46.109375 31.113281 46.621094 C 30.839844 46.683594 30.617188 46.878906 30.519531 47.140625 L 29.105469 50.804688 L 23.394531 50.804688 L 21.980469 47.140625 C 21.882812 46.878906 21.660156 46.683594 21.386719 46.621094 C 19.230469 46.105469 17.179688 45.253906 15.289062 44.089844 C 15.050781 43.945312 14.753906 43.925781 14.5 44.039062 L 10.90625 45.632812 L 6.867188 41.59375 L 8.460938 38 C 8.574219 37.746094 8.554688 37.453125 8.410156 37.214844 C 7.242188 35.320312 6.394531 33.269531 5.878906 31.113281 C 5.816406 30.839844 5.621094 30.617188 5.359375 30.519531 L 1.695312 29.105469 L 1.695312 23.394531 L 5.359375 21.980469 C 5.621094 21.882812 5.816406 21.660156 5.878906 21.386719 C 6.394531 19.230469 7.242188 17.179688 8.410156 15.285156 C 8.554688 15.050781 8.574219 14.753906 8.460938 14.5 L 6.867188 10.90625 L 10.90625 6.867188 L 14.5 8.460938 C 14.753906 8.574219 15.050781 8.554688 15.289062 8.410156 C 17.179688 7.246094 19.230469 6.394531 21.386719 5.878906 C 21.660156 5.816406 21.882812 5.621094 21.980469 5.359375 L 23.394531 1.695312 L 29.105469 1.695312 L 30.519531 5.359375 C 30.617188 5.621094 30.839844 5.816406 31.113281 5.878906 C 33.269531 6.394531 35.320312 7.246094 37.210938 8.410156 C 37.449219 8.554688 37.746094 8.574219 38 8.460938 L 41.59375 6.867188 L 45.632812 10.90625 L 44.039062 14.5 C 43.925781 14.753906 43.945312 15.046875 44.089844 15.285156 C 45.257812 17.179688 46.109375 19.230469 46.621094 21.386719 C 46.683594 21.660156 46.878906 21.882812 47.140625 21.980469 L 50.804688 23.394531 Z M 26.25 6.898438 C 15.578125 6.898438 6.898438 15.582031 6.898438 26.25 C 6.898438 36.921875 15.578125 45.601562 26.25 45.601562 C 36.921875 45.601562 45.601562 36.921875 45.601562 26.25 C 45.601562 15.578125 36.921875 6.898438 26.25 6.898438 Z M 26.25 43.90625 C 16.515625 43.90625 8.59375 35.984375 8.59375 26.25 C 8.59375 16.515625 16.515625 8.59375 26.25 8.59375 C 35.984375 8.59375 43.90625 16.515625 43.90625 26.25 C 43.90625 35.984375 35.984375 43.90625 26.25 43.90625 Z M 36.503906 12.875 L 32.921875 15.117188 C 32.761719 15.21875 32.640625 15.367188 32.574219 15.542969 L 31.851562 17.496094 L 26.773438 22.574219 L 24.5625 20.359375 C 25.246094 18.132812 24.65625 15.699219 22.984375 14.027344 C 21.285156 12.332031 18.816406 11.738281 16.53125 12.488281 C 16.253906 12.578125 16.039062 12.808594 15.972656 13.09375 C 15.902344 13.378906 15.988281 13.683594 16.195312 13.890625 L 19.75 17.445312 L 19.265625 19.265625 L 17.445312 19.75 L 13.890625 16.195312 C 13.683594 15.988281 13.378906 15.902344 13.09375 15.972656 C 12.808594 16.039062 12.578125 16.253906 12.488281 16.53125 C 11.738281 18.816406 12.332031 21.285156 14.027344 22.984375 C 15.699219 24.65625 18.132812 25.246094 20.359375 24.5625 L 21.785156 25.988281 C 21.515625 26.0625 21.257812 26.207031 21.042969 26.417969 L 12.996094 34.464844 C 12.664062 34.796875 12.664062 35.332031 12.996094 35.664062 L 16.835938 39.503906 C 16.996094 39.664062 17.210938 39.75 17.433594 39.75 C 17.660156 39.75 17.875 39.664062 18.035156 39.503906 L 26.082031 31.457031 C 26.292969 31.242188 26.4375 30.984375 26.511719 30.714844 L 27.9375 32.140625 C 27.253906 34.367188 27.84375 36.800781 29.515625 38.472656 C 30.726562 39.683594 32.335938 40.332031 33.984375 40.332031 C 34.644531 40.332031 35.316406 40.226562 35.96875 40.011719 C 36.25 39.921875 36.460938 39.691406 36.527344 39.40625 C 36.597656 39.121094 36.511719 38.816406 36.304688 38.609375 L 32.75 35.054688 L 33.238281 33.234375 L 35.054688 32.75 L 38.609375 36.304688 C 38.816406 36.511719 39.121094 36.597656 39.40625 36.527344 C 39.691406 36.460938 39.921875 36.246094 40.015625 35.96875 C 40.761719 33.683594 40.171875 31.214844 38.472656 29.515625 C 36.800781 27.84375 34.367188 27.253906 32.140625 27.9375 L 29.925781 25.726562 L 35.003906 20.648438 L 36.957031 19.925781 C 37.132812 19.859375 37.28125 19.738281 37.382812 19.578125 L 39.625 15.996094 C 39.832031 15.664062 39.78125 15.226562 39.503906 14.949219 L 37.550781 12.996094 C 37.273438 12.71875 36.835938 12.667969 36.503906 12.875 Z M 20.261719 22.800781 C 18.527344 23.507812 16.550781 23.109375 15.222656 21.785156 C 14.351562 20.910156 13.875 19.753906 13.863281 18.566406 L 16.59375 21.292969 C 16.808594 21.507812 17.117188 21.59375 17.410156 21.511719 L 20.175781 20.773438 C 20.464844 20.695312 20.695312 20.464844 20.773438 20.175781 L 21.511719 17.410156 C 21.589844 17.117188 21.507812 16.808594 21.292969 16.59375 L 18.566406 13.863281 C 19.753906 13.875 20.910156 14.351562 21.785156 15.222656 C 23.109375 16.550781 23.507812 18.527344 22.800781 20.261719 C 22.671875 20.578125 22.746094 20.9375 22.984375 21.179688 L 25.578125 23.773438 L 23.773438 25.578125 L 21.179688 22.984375 C 20.9375 22.746094 20.578125 22.671875 20.261719 22.800781 Z M 17.433594 37.707031 L 14.792969 35.066406 L 22.234375 27.617188 L 22.578125 27.957031 C 22.578125 27.960938 22.582031 27.960938 22.582031 27.964844 C 22.585938 27.964844 22.585938 27.96875 22.589844 27.96875 L 24.5 29.875 C 24.511719 29.890625 24.523438 29.902344 24.535156 29.917969 C 24.550781 29.929688 24.5625 29.941406 24.578125 29.957031 L 24.882812 30.257812 Z M 31.320312 29.515625 C 31.5625 29.753906 31.921875 29.828125 32.238281 29.699219 C 33.972656 28.992188 35.949219 29.390625 37.273438 30.714844 C 38.148438 31.589844 38.625 32.746094 38.636719 33.933594 L 35.90625 31.207031 C 35.691406 30.992188 35.382812 30.90625 35.089844 30.988281 L 32.324219 31.726562 C 32.035156 31.804688 31.804688 32.035156 31.726562 32.324219 L 30.984375 35.089844 C 30.90625 35.382812 30.992188 35.691406 31.207031 35.90625 L 33.933594 38.636719 C 32.746094 38.625 31.589844 38.148438 30.714844 37.277344 C 29.390625 35.949219 28.992188 33.972656 29.699219 32.238281 C 29.828125 31.921875 29.753906 31.5625 29.515625 31.320312 L 26.921875 28.726562 L 28.726562 26.921875 Z M 36.097656 18.4375 L 34.242188 19.125 C 34.125 19.167969 34.023438 19.234375 33.9375 19.320312 L 25.136719 28.121094 L 24.378906 27.363281 L 33.179688 18.5625 C 33.265625 18.476562 33.332031 18.375 33.375 18.257812 L 34.0625 16.402344 L 36.828125 14.671875 L 37.828125 15.671875 Z M 36.097656 18.4375 " fill-opacity="1" fill-rule="nonzero"/></g></svg>