<?xml version="1.0" encoding="utf-8"?>
<!-- Generator: Adobe Illustrator 24.3.0, SVG Export Plug-In . SVG Version: 6.00 Build 0)  -->
<svg version="1.1" id="Layer_1" xmlns="http://www.w3.org/2000/svg" xmlns:xlink="http://www.w3.org/1999/xlink" x="0px" y="0px"
	 viewBox="0 0 70 70" style="enable-background:new 0 0 70 70;" xml:space="preserve">
<style type="text/css">
	.st0{fill:none;stroke:#4D4E4E;stroke-miterlimit:10;}
	.st1{fill:none;stroke:#4D4E4E;stroke-width:3;stroke-miterlimit:10;}
</style>
<image style="display:none;overflow:visible;" width="128" height="128" xlink:href="ink.png"  transform="matrix(0.5181 0 0 0.524 1.7895 1.4105)">
</image>
<path class="st0" d="M20.2,2.7h29.4c0.7,0,1.2,0.5,1.2,1.2v21c0,0.7-0.2,1.3-0.7,1.8l-3.2,3.5c-0.4,0.5-0.7,1.1-0.7,1.8v17.4
	c0,0.8-0.2,1.5-0.6,2.1l-9.9,14.7c-0.5,0.7-1.3,1.2-2.2,1.2H3.9c-0.6,0-1.2-0.5-1.2-1.2V19.2L18.2,3.6C18.7,3,19.4,2.7,20.2,2.7z"/>
<path class="st0" d="M2.7,19.2h31.2c0.6,0,1,0.5,1,1L35,66.9"/>
<path class="st0" d="M13,27h11.7c1.1,0,2,0.9,2,2v18.6c0,1.1-0.9,2-2,2H13c-1.1,0-2-0.9-2-2V28.9C11.1,27.9,12,27,13,27z"/>
<line class="st1" x1="9.8" y1="58.8" x2="15" y2="58.8"/>
<line class="st1" x1="23.2" y1="58.8" x2="28.1" y2="58.8"/>
<path class="st0" d="M59.2,46.1c-2.5,3.7-13.3,20.9,0.5,20.9c0,0,15.2-1.1,0.5-20.9C59.9,45.7,59.4,45.7,59.2,46.1z"/>
</svg>
