<?xml version="1.0" encoding="utf-8"?>
<!-- Generator: Adobe Illustrator 24.3.0, SVG Export Plug-In . SVG Version: 6.00 Build 0)  -->
<svg version="1.1" id="Layer_1" xmlns="http://www.w3.org/2000/svg" xmlns:xlink="http://www.w3.org/1999/xlink" x="0px" y="0px"
	 viewBox="0 0 70 70" style="enable-background:new 0 0 70 70;" xml:space="preserve">
<style type="text/css">
	.st0{fill:none;stroke:#4D4E4E;stroke-miterlimit:10;}
	.st1{fill:none;stroke:#4D4E4E;stroke-width:2;stroke-linecap:round;stroke-miterlimit:10;}
	.st2{fill:none;stroke:#4D4E4E;stroke-linecap:round;stroke-miterlimit:10;}
	.st3{fill:#4D4E4E;}
</style>
<path class="st0" d="M39.2,12.1H23.6c-0.6,0-1.2,0.2-1.7,0.6c-0.9,0.8-2.2,2.3-2.1,4.8v7.3"/>
<path class="st0" d="M41.3,25.3H12c-1.6,0-3.3,0.4-4.6,1.3c-1.6,1-3.1,2.9-2.9,6v20.6H16v14.4h34.2l0-18.3l5.4,0"/>
<polyline class="st0" points="54.3,53.1 62.1,53.1 62.1,28.1 "/>
<line class="st1" x1="48.6" y1="41.8" x2="55" y2="41.8"/>
<line class="st1" x1="20.2" y1="57.2" x2="26.5" y2="57.2"/>
<line class="st1" x1="27.9" y1="61.9" x2="39.3" y2="61.9"/>
<line class="st1" x1="29.7" y1="57.2" x2="45.4" y2="57.2"/>
<line class="st2" x1="49.6" y1="49.3" x2="11.3" y2="49.1"/>
<line class="st2" x1="16" y1="53.2" x2="16" y2="49.4"/>
<path class="st0" d="M11.4,43.9L11.4,43.9c-1.3,0-2.4-1.1-2.4-2.4v-5.2c0-1.3,1.1-2.4,2.4-2.4h0c1.3,0,2.4,1.1,2.4,2.4v5.2
	C13.8,42.8,12.7,43.9,11.4,43.9z"/>
<circle class="st3" cx="11.3" cy="30" r="1.1"/>
<path class="st0" d="M53.5,8.5L43.4,25.6c-0.1,0.1,0,0.3,0.2,0.3h20.2c0.2,0,0.4-0.3,0.3-0.5l-9.8-17C54.1,8.2,53.7,8.2,53.5,8.5z"
	/>
<path class="st0" d="M52.5,6.1L40.9,26.2c-0.4,0.7,0.1,1.5,0.9,1.5h23.5c0.8,0,1.3-0.9,0.9-1.6l-11.6-21c-0.4-0.7-1.4-0.7-1.7,0.1v0
	C52.8,5.5,52.7,5.8,52.5,6.1z"/>
<path class="st0" d="M52.5,14.9l0.4,3.6c0,0.4,0.4,0.8,0.7,0.8h0.4c0.4,0,0.7-0.3,0.7-0.8l0.3-3.6c0.1-0.6-0.3-1.1-0.9-1.1h-0.9
	C52.8,13.8,52.4,14.3,52.5,14.9z"/>
<circle class="st0" cx="53.7" cy="22.4" r="1.4"/>
</svg>
