<?xml version="1.0" encoding="utf-8"?>
<!-- Generator: Adobe Illustrator 24.3.0, SVG Export Plug-In . SVG Version: 6.00 Build 0)  -->
<svg version="1.1" id="Layer_1" xmlns="http://www.w3.org/2000/svg" xmlns:xlink="http://www.w3.org/1999/xlink" x="0px" y="0px"
	 viewBox="0 0 70 70" style="enable-background:new 0 0 70 70;" xml:space="preserve">
<style type="text/css">
	.st0{fill:none;stroke:#4D4E4E;stroke-miterlimit:10;}
	.st1{fill:none;stroke:#4D4E4E;stroke-width:2;stroke-linecap:round;stroke-miterlimit:10;}
	.st2{fill:none;stroke:#4D4E4E;stroke-linecap:round;stroke-miterlimit:10;}
	.st3{fill:#4D4E4E;}
</style>
<path class="st0" d="M39.4,12H23.8c-0.6,0-1.2,0.2-1.7,0.6c-0.9,0.8-2.2,2.3-2.1,4.8v7.3"/>
<path class="st0" d="M43.5,25.2H12.2c-1.6,0-3.3,0.4-4.6,1.3c-1.6,1-3.1,2.9-2.9,6v20.6h11.6v14.4h34.2l0-18.3l5.4,0"/>
<polyline class="st0" points="54.5,53 62.3,53 62.3,28.1 "/>
<line class="st1" x1="48.8" y1="41.7" x2="55.2" y2="41.7"/>
<line class="st1" x1="20.4" y1="57.1" x2="26.7" y2="57.1"/>
<line class="st1" x1="28.1" y1="61.8" x2="39.5" y2="61.8"/>
<line class="st1" x1="29.9" y1="57.1" x2="45.6" y2="57.1"/>
<line class="st2" x1="49.8" y1="49.2" x2="11.5" y2="49.1"/>
<line class="st2" x1="16.2" y1="53.1" x2="16.2" y2="49.4"/>
<path class="st0" d="M11.6,43.8L11.6,43.8c-1.3,0-2.4-1.1-2.4-2.4v-5.2c0-1.3,1.1-2.4,2.4-2.4h0c1.3,0,2.4,1.1,2.4,2.4v5.2
	C14,42.7,12.9,43.8,11.6,43.8z"/>
<circle class="st3" cx="11.4" cy="29.9" r="1.1"/>
<circle class="st0" cx="53.9" cy="18.6" r="12.5"/>
<line class="st1" x1="50.5" y1="16.1" x2="57.2" y2="21.8"/>
<line class="st1" x1="57" y1="16.1" x2="50.7" y2="21.8"/>
</svg>
