<?xml version="1.0" encoding="utf-8"?>
<!-- Generator: Adobe Illustrator 24.3.0, SVG Export Plug-In . SVG Version: 6.00 Build 0)  -->
<svg version="1.1" id="Layer_1" xmlns="http://www.w3.org/2000/svg" xmlns:xlink="http://www.w3.org/1999/xlink" x="0px" y="0px"
	 viewBox="0 0 70 70" style="enable-background:new 0 0 70 70;" xml:space="preserve">
<style type="text/css">
	.st0{fill:none;stroke:#4D4E4E;stroke-miterlimit:10;}
	.st1{fill:none;stroke:#4D4E4E;stroke-width:2;stroke-linecap:round;stroke-miterlimit:10;}
	.st2{fill:none;stroke:#4D4E4E;stroke-linecap:round;stroke-miterlimit:10;}
	.st3{fill:#4D4E4E;}
</style>
<image style="display:none;overflow:visible;" width="128" height="128" xlink:href="printer.png"  transform="matrix(0.5122 0 0 0.5122 2.3282 3.1158)">
</image>
<path class="st0" d="M36.8,12.7H23.2c-0.6,0-1.2,0.2-1.7,0.6c-0.9,0.8-2.2,2.3-2.1,4.8v7.3"/>
<path class="st0" d="M40.5,25.9H11.6c-1.6,0-3.3,0.4-4.6,1.3c-1.6,1-3.1,2.9-2.9,6v20.6h11.6v14.4h34.2l0-18.3l5.4,0"/>
<polyline class="st0" points="53.9,53.7 61.8,53.7 61.8,28.8 "/>
<path class="st0" d="M50.6,4.1h1.6c0.6,0,1.2,0.4,1.3,1.1L53.9,7c0.1,0.4,0.3,0.8,0.7,0.9l1.8,0.9c0.4,0.2,0.9,0.2,1.3-0.1l1.6-1
	c0.5-0.3,1.2-0.2,1.6,0.2l1.5,1.6c0.5,0.5,0.5,1.3,0,1.8l-0.7,0.8c-0.3,0.3-0.4,0.8-0.3,1.2l0.5,1.8c0.2,0.6,0.7,1,1.3,1h1.2
	c0.7,0,1.3,0.6,1.3,1.3v2c0,0.6-0.4,1.1-1,1.3l-1.6,0.5c-0.4,0.1-0.7,0.4-0.8,0.7l-0.8,1.7c-0.2,0.4-0.2,0.9,0.1,1.3l1.1,1.7
	c0.3,0.5,0.3,1.2-0.2,1.6l-1.2,1.3c-0.5,0.5-1.2,0.5-1.8,0.1l-1.3-1c-0.4-0.3-0.9-0.4-1.3-0.2l-2.2,0.9c-0.5,0.2-0.8,0.7-0.8,1.2
	v1.3c0,0.7-0.6,1.3-1.3,1.3h-1.9c-0.7,0-1.3-0.6-1.3-1.3v-1.1c0-0.5-0.3-0.9-0.7-1.2l-2.2-1.1c-0.5-0.3-1.1-0.2-1.5,0.2l-0.9,0.9
	c-0.5,0.5-1.4,0.5-1.9,0l-1.5-1.6c-0.5-0.5-0.5-1.3,0-1.8l0.6-0.6c0.3-0.4,0.5-0.9,0.3-1.4L40.8,22c-0.2-0.4-0.6-0.7-1-0.8L38.3,21
	c-0.6-0.1-1.1-0.7-1.1-1.3v-2.1c0-0.7,0.6-1.3,1.3-1.3l1.4,0c0.5,0,1-0.4,1.2-0.9l0.7-2c0.2-0.5,0-1-0.3-1.4l-1-1
	c-0.5-0.5-0.5-1.3,0-1.8l1.3-1.3c0.5-0.5,1.3-0.5,1.8-0.1l1.3,1.1c0.4,0.3,0.9,0.4,1.3,0.2L48.4,8c0.5-0.2,0.8-0.6,0.8-1.2l0.1-1.6
	C49.3,4.6,49.9,4.1,50.6,4.1z"/>
<line class="st1" x1="48.3" y1="42.5" x2="54.6" y2="42.5"/>
<line class="st1" x1="19.8" y1="57.8" x2="26.1" y2="57.8"/>
<line class="st1" x1="27.6" y1="62.5" x2="38.9" y2="62.5"/>
<line class="st1" x1="29.3" y1="57.8" x2="45" y2="57.8"/>
<line class="st2" x1="49.2" y1="49.9" x2="10.9" y2="49.8"/>
<line class="st2" x1="15.6" y1="53.8" x2="15.6" y2="50.1"/>
<circle class="st0" cx="51.6" cy="18.2" r="5.1"/>
<path class="st0" d="M11,44.5L11,44.5c-1.3,0-2.4-1.1-2.4-2.4v-5.2c0-1.3,1.1-2.4,2.4-2.4h0c1.3,0,2.4,1.1,2.4,2.4v5.2
	C13.4,43.4,12.4,44.5,11,44.5z"/>
<circle class="st3" cx="10.9" cy="30.7" r="1.1"/>
</svg>
