<?xml version="1.0" encoding="utf-8"?>
<!-- Generator: Adobe Illustrator 24.3.0, SVG Export Plug-In . SVG Version: 6.00 Build 0)  -->
<svg version="1.1" id="Layer_1" xmlns="http://www.w3.org/2000/svg" xmlns:xlink="http://www.w3.org/1999/xlink" x="0px" y="0px"
	 viewBox="0 0 70 70" style="enable-background:new 0 0 70 70;" xml:space="preserve">
<style type="text/css">
	.st0{fill:none;stroke:#4D4E4E;stroke-linecap:round;stroke-miterlimit:10;}
	.st1{fill:none;stroke:#4D4E4F;stroke-miterlimit:10;}
</style>
<image style="display:none;overflow:visible;" width="512" height="512" xlink:href="cloud.png"  transform="matrix(0.1367 0 0 0.1367 0 0)">
</image>
<path class="st0" d="M23.2,15.2h38.7c0,0,2.3-0.4,2,3.8L64,51.6c0,0.6,0.5,1,1,1h2.5c1,0,1.8,0.8,1.9,1.8c0.1,2.5-0.4,6.7-5.1,6.2
	l-59.7,0c0,0-3.8,0-3.7-5.5C0.8,54,1.8,53,3,53l2.2,0c0.6,0,1-0.5,1-1V32.6"/>
<polyline class="st0" points="20.7,42.5 20.7,47.2 49.4,47.2 49.4,42.5 "/>
<path class="st0" d="M32.7,21.7h4c0.6,0,1.2,0.5,1.2,1.2v8.6c0,0.5,0.4,0.9,0.9,0.9h1.5c0.5,0,0.8,0.5,0.5,0.9l-5.5,9.5l-6.9-9.5
	c-0.3-0.4,0-1,0.5-1h1.8c0.5,0,0.9-0.4,0.9-0.9l-0.1-8.5C31.5,22.2,32,21.7,32.7,21.7z"/>
<path class="st1" d="M11.9,10.4h2.6c0.5,0,0.9,0.4,1,0.9l0.4,2.2c0.1,0.7,0.9,1.1,1.5,0.7l2.1-1.1c0.4-0.2,0.9-0.1,1.3,0.2l1.6,1.6
	c0.3,0.3,0.4,0.8,0.2,1.3l-1.2,2.1c-0.3,0.6,0,1.3,0.6,1.5l2.6,0.9c0.4,0.1,0.7,0.6,0.7,1v2.2c0,0.5-0.4,0.9-0.8,1l-2.1,0.4
	c-0.7,0.1-1,0.9-0.7,1.5l1.2,2.5c0.2,0.4,0.1,0.8-0.1,1.1l-1.6,2c-0.4,0.4-1,0.5-1.5,0.2l-1.7-1.3c-0.6-0.4-1.4-0.2-1.6,0.5L15.4,34
	c-0.2,0.4-0.6,0.7-1,0.7h-2.3c-0.5,0-0.9-0.3-1-0.7l-0.7-2.2c-0.2-0.7-1-1-1.6-0.6L7,32.4c-0.4,0.3-1,0.2-1.4-0.2l-1.9-2
	c-0.3-0.4-0.4-0.9-0.1-1.3l1-1.4c0.4-0.6,0.1-1.4-0.6-1.6l-2.2-0.6c-0.5-0.1-0.8-0.5-0.8-1v-2.5c0-0.5,0.3-0.9,0.7-1l2.3-0.8
	c0.7-0.2,0.9-1,0.6-1.6l-1.2-1.9c-0.3-0.4-0.2-1,0.1-1.3l1.8-1.9c0.3-0.4,0.9-0.4,1.3-0.2l2,1.2c0.6,0.4,1.4,0,1.6-0.7l0.5-2.4
	C10.9,10.7,11.4,10.4,11.9,10.4z"/>
<circle class="st0" cx="12.7" cy="22" r="4.1"/>
<line class="st0" x1="6" y1="52.8" x2="65.4" y2="52.6"/>
</svg>
