<?xml version="1.0" encoding="utf-8"?>
<!-- Generator: Adobe Illustrator 24.3.0, SVG Export Plug-In . SVG Version: 6.00 Build 0)  -->
<svg version="1.1" id="Layer_1" xmlns="http://www.w3.org/2000/svg" xmlns:xlink="http://www.w3.org/1999/xlink" x="0px" y="0px"
	 viewBox="0 0 70 70" style="enable-background:new 0 0 70 70;" xml:space="preserve">
<style type="text/css">
	.st0{clip-path:url(#SVGID_2_);}
	.st1{fill:#595959;}
	.st2{fill:#595959;stroke:#595959;stroke-width:0.5;stroke-miterlimit:10;}
</style>
<g>
	<defs>
		<rect id="SVGID_1_" x="201.8" y="-181.7" width="69" height="67.9"/>
	</defs>
	<clipPath id="SVGID_2_">
		<use xlink:href="#SVGID_1_"  style="overflow:visible;"/>
	</clipPath>
	<g class="st0">
		<path class="st1" d="M263.4-133.7h4.2v-1.9h-4.2V-133.7z M263.4-130.7h4.2v-1.9h-4.2V-130.7z M269.2-144.1
			c-0.7-0.5-1.5-0.8-2.4-0.8h-60.9c-0.9,0-1.8,0.3-2.4,0.8v-7.2c0-1.4,1.1-2.5,2.4-2.5h60.9c1.3,0,2.4,1.1,2.4,2.5V-144.1z
			 M269.2-128.6c0,1.4-1.1,2.5-2.4,2.5H259v-0.8h2.5v-9.7h-50.4v9.7h2.5v0.8h-7.7c-1.3,0-2.4-1.1-2.4-2.5v-12.2
			c0-1.4,1.1-2.5,2.4-2.5h60.9c1.3,0,2.4,1.1,2.4,2.5V-128.6z M258.2-134h-43.8c-0.4,0-0.8,0.4-0.8,0.8v4.5h-0.9v-6.5h47.2v6.5H259
			v-4.5C259-133.6,258.6-134,258.2-134z M257.4-115.3h-42.2v-17h42.2V-115.3z M211.9-166h1.7v10.6h-1.7V-166z M215.2-180h42.2v24.6
			h-42.2V-180z M259-166h1.7v10.6H259V-166z M266.7-155.4h-4.4v-11.4c0-0.4-0.4-0.8-0.8-0.8H259v-13.2c0-0.4-0.4-0.8-0.8-0.8h-43.8
			c-0.4,0-0.8,0.4-0.8,0.8v13.2h-2.5c-0.4,0-0.8,0.4-0.8,0.8v11.4h-4.4c-2.2,0-4.1,1.8-4.1,4.1v22.7c0,2.2,1.8,4.1,4.1,4.1h7.7v10
			c0,0.4,0.4,0.8,0.8,0.8h43.8c0.4,0,0.8-0.4,0.8-0.8v-10h7.7c2.2,0,4.1-1.8,4.1-4.1v-22.7C270.8-153.6,269-155.4,266.7-155.4z
			 M263.4-127.8h4.2v-1.9h-4.2V-127.8"/>
	</g>
</g>
<g>
	<path class="st1" d="M230.1-160.2c-0.4-0.4-0.8-0.8-1.2-1.1c-0.1,0.1-0.3,0.3-0.4,0.4c-0.3,0.3-0.7,0.7-1,1
		c-0.3,0.3-0.7,0.2-0.8-0.2c-0.7-2.2,1-4.4,3.3-4.2c0.1,0,0.2,0,0.2-0.1c0.9-0.9,1.8-1.8,2.7-2.7c0.1-0.1,0.1-0.2,0-0.3
		c-0.9-2.6,0.3-5.4,2.8-6.6c3.2-1.4,6.9,0.6,7.4,4c0.4,2.9-1.5,5.5-4.4,6c-0.9,0.2-1.9,0.1-2.8-0.3c-0.1-0.1-0.2,0-0.3,0.1
		c-0.8,0.8-1.7,1.7-2.5,2.5c-0.1,0.1-0.2,0.2-0.2,0.4c0,1.5-0.8,2.7-2.1,3.2c-0.7,0.2-1.4,0.3-2.1,0c-0.4-0.1-0.5-0.5-0.2-0.8
		c0.4-0.5,0.9-0.9,1.3-1.3C230-160.1,230-160.2,230.1-160.2z M227.3-161C227.4-161,227.4-161,227.3-161c0.1,0,0.1-0.1,0.2-0.1
		c0.3-0.3,0.7-0.7,1-1c0.2-0.2,0.5-0.2,0.7,0c0.5,0.5,1.1,1.1,1.6,1.6c0.2,0.2,0.2,0.5,0,0.7c-0.4,0.4-0.7,0.7-1.1,1.1
		c0,0-0.1,0.1-0.1,0.1c0.1,0,0.1,0,0.1,0c1.5,0,2.6-1.3,2.4-2.8c0-0.2,0-0.3,0.1-0.5c1.6-1.6,3.1-3.1,4.7-4.7
		c0.1-0.1,0.3-0.2,0.4-0.1c1,0.1,1.8-0.2,2.4-1.1c0.3-0.4,0.4-0.9,0.4-1.5c-0.1,0.1-0.1,0.1-0.2,0.2c-0.4,0.4-0.7,0.7-1.1,1.1
		c-0.2,0.2-0.4,0.2-0.7,0c-0.5-0.5-1.1-1.1-1.6-1.6c-0.2-0.2-0.2-0.4,0-0.7c0.3-0.4,0.7-0.7,1.1-1.1c0,0,0.1-0.1,0.1-0.2
		c-0.1,0-0.1,0-0.1,0c-1.4,0-2.6,1.3-2.4,2.7c0,0.2,0,0.4-0.2,0.6c-1.5,1.5-3.1,3.1-4.6,4.6c-0.1,0.1-0.3,0.2-0.5,0.2
		c-1.2-0.2-2.4,0.6-2.7,1.8C227.4-161.4,227.4-161.2,227.3-161z M236.5-164.9c1.4,0.6,3.8,0.3,5.1-1.6c1.3-1.8,1-4.3-0.7-5.9
		c-1.6-1.5-4.2-1.5-5.9-0.1c-0.9,0.8-1.4,1.7-1.6,2.9c-0.1,0.6,0,1.2,0.2,1.8c0.3-0.3,0.5-0.5,0.8-0.8c0.1-0.1,0.2-0.3,0.2-0.5
		c-0.1-2.2,2.1-3.9,4.2-3.2c0.4,0.1,0.5,0.5,0.2,0.8c-0.4,0.4-0.9,0.9-1.3,1.3c0,0-0.1,0.1-0.1,0.1c0.4,0.4,0.8,0.8,1.2,1.2
		c0,0,0.1-0.1,0.1-0.2c0.4-0.4,0.9-0.9,1.3-1.3c0.3-0.3,0.6-0.2,0.7,0.2c0.2,0.5,0.2,1,0.1,1.6c-0.3,1.7-1.7,2.8-3.4,2.7
		c-0.1,0-0.1,0-0.2,0C237.1-165.5,236.8-165.2,236.5-164.9z"/>
	<path class="st1" d="M242.4-174.9c-0.3,0.2-0.7,0.3-1,0.5c-0.2,0.1-0.4,0.1-0.6,0c-0.4-0.2-0.8-0.4-1.2-0.5
		c-0.2-0.1-0.3-0.2-0.4-0.4c-0.1-0.3-0.2-0.6-0.3-0.9c0-0.1-0.1-0.1-0.2-0.1c-0.5,0-1,0-1.6,0c-0.1,0-0.1,0-0.2,0.1
		c-0.1,0.3-0.2,0.6-0.3,1c-0.1,0.2-0.2,0.3-0.4,0.4c-0.4,0.2-0.9,0.3-1.3,0.5c-0.2,0.1-0.3,0.1-0.5,0c-0.3-0.2-0.6-0.3-0.9-0.5
		c-0.1,0-0.1,0-0.2,0c-0.4,0.4-0.7,0.8-1.1,1.1c-0.1,0.1-0.1,0.1,0,0.2c0.2,0.3,0.3,0.6,0.5,0.9c0.1,0.2,0.1,0.3,0,0.5
		c-0.2,0.4-0.4,0.9-0.6,1.3c-0.1,0.2-0.2,0.3-0.3,0.3c-0.3,0.1-0.7,0.2-1,0.3c-0.1,0-0.1,0.1-0.1,0.2c0,0.6,0,1.1,0,1.7
		c0.4,0.1,0.7,0.2,1.1,0.4c0.2,0.1,0.3,0.1,0.3,0.3c0.1,0.3-0.2,0.6-0.5,0.5c-0.5-0.2-1-0.3-1.5-0.5c-0.2-0.1-0.2-0.2-0.2-0.4
		c0-0.8,0-1.6,0-2.4c0-0.2,0.1-0.3,0.3-0.4c0.4-0.1,0.7-0.2,1.1-0.4c0.1,0,0.2-0.1,0.2-0.2c0.1-0.3,0.3-0.6,0.4-1c0-0.1,0-0.2,0-0.2
		c-0.2-0.3-0.3-0.7-0.5-1c-0.1-0.2-0.1-0.4,0.1-0.5c0.5-0.5,1.1-1.1,1.6-1.6c0.2-0.2,0.3-0.2,0.6-0.1c0.3,0.2,0.6,0.3,1,0.5
		c0.1,0.1,0.2,0.1,0.3,0c0.3-0.1,0.6-0.3,0.9-0.4c0.1,0,0.2-0.1,0.2-0.2c0.1-0.3,0.2-0.7,0.4-1c0.1-0.2,0.2-0.3,0.5-0.3
		c0.8,0,1.5,0,2.3,0c0.3,0,0.4,0.1,0.5,0.3c0.1,0.3,0.2,0.7,0.4,1c0,0.1,0.1,0.2,0.2,0.2c0.3,0.1,0.6,0.3,0.9,0.4c0.1,0,0.2,0,0.3,0
		c0.3-0.2,0.7-0.3,1-0.5c0.2-0.1,0.4-0.1,0.6,0.1c0.5,0.5,1.1,1.1,1.6,1.6c0.2,0.2,0.2,0.3,0.1,0.6c-0.2,0.3-0.3,0.6-0.5,1
		c-0.1,0.1-0.1,0.2,0,0.3c0.1,0.3,0.3,0.6,0.4,0.9c0,0.1,0.1,0.2,0.2,0.2c0.3,0.1,0.7,0.2,1,0.4c0.3,0.1,0.3,0.2,0.3,0.5
		c0,0.8,0,1.5,0,2.3c0,0.3-0.1,0.4-0.3,0.5c-0.3,0.1-0.7,0.2-1,0.3c-0.1,0-0.2,0.1-0.2,0.2c-0.1,0.3-0.2,0.6-0.4,0.9
		c-0.1,0.1-0.1,0.2,0,0.3c0.2,0.3,0.3,0.6,0.5,0.9c0.1,0.2,0.1,0.4-0.1,0.6c-0.5,0.5-1.1,1.1-1.6,1.6c-0.2,0.2-0.3,0.2-0.6,0.1
		c-0.3-0.2-0.7-0.3-1-0.5c-0.1,0-0.2,0-0.3,0c-0.3,0.1-0.6,0.3-1,0.4c-0.1,0-0.1,0.1-0.2,0.2c-0.1,0.3-0.2,0.7-0.3,1
		c-0.1,0.3-0.2,0.4-0.5,0.4c-0.8,0-1.5,0-2.3,0c-0.3,0-0.4-0.1-0.5-0.4c-0.1-0.4-0.3-0.9-0.4-1.3c-0.1-0.3,0-0.5,0.2-0.6
		c0.2-0.1,0.4,0,0.5,0.3c0.1,0.3,0.2,0.6,0.3,1c0,0.1,0.1,0.1,0.2,0.1c0.5,0,1,0,1.6,0c0.1,0,0.2-0.1,0.2-0.1c0.1-0.3,0.2-0.6,0.3-1
		c0.1-0.2,0.2-0.3,0.4-0.4c0.5-0.2,0.9-0.4,1.3-0.6c0.2-0.1,0.3-0.1,0.5,0c0.3,0.2,0.6,0.3,0.9,0.5c0.1,0,0.2,0,0.2,0
		c0.4-0.4,0.7-0.7,1.1-1.1c0.1-0.1,0.1-0.1,0-0.3c-0.2-0.3-0.3-0.6-0.5-0.9c-0.1-0.2-0.1-0.3,0-0.5c0.2-0.4,0.4-0.9,0.5-1.3
		c0.1-0.2,0.2-0.3,0.4-0.4c0.3-0.1,0.6-0.2,1-0.3c0.1,0,0.1-0.1,0.1-0.2c0-0.5,0-1,0-1.6c0-0.1-0.1-0.2-0.2-0.2
		c-0.3-0.1-0.6-0.2-0.9-0.3c-0.2-0.1-0.3-0.2-0.4-0.4c-0.2-0.4-0.3-0.9-0.5-1.3c-0.1-0.2-0.1-0.3,0-0.5c0.2-0.3,0.3-0.6,0.5-0.9
		c0-0.1,0-0.2,0-0.2C243.2-174.1,242.8-174.5,242.4-174.9z"/>
</g>
<g>
	<path class="st2" d="M176.2-115.6c-0.3,0.1-0.6,0.3-0.9,0.3c-4.7,0-9.5,0-14.2,0c-0.3,0-0.6-0.1-0.7-0.3c-0.1-0.2,0-0.6,0.2-0.8
		c0.6-0.9,1.2-1.8,1.7-2.7c0-0.1-0.1-0.1-0.1-0.2c-0.7,0.1-1.4,0.1-2.1,0.3c-2.4,0.6-4,2.8-4.2,5.2c0,0.1,0,0.3,0,0.3
		c-0.2,0.2-0.4,0.4-0.6,0.6c-0.2-0.2-0.5-0.5-0.5-0.7c0.1-0.8,0.2-1.6,0.4-2.3c1.2-3.2,4.5-5.1,7.8-4.5c0.9,0.2,1,0.5,0.6,1.3
		c-0.5,0.8-1.1,1.6-1.7,2.5c4.3,0,8.5,0,12.9,0c-1.7-3.9-3.3-7.8-5.1-11.8c-0.4,0.6-0.7,1.1-1.1,1.6c-1,1.6-1,1.6-2.8,1
		c-7.7-2.5-15.7,2.3-17,10.3c-0.1,0.6-0.1,1.1-0.1,1.7c0,0.4,0,0.9-0.6,0.9c-0.5,0-0.5-0.5-0.5-0.9c0.1-3.6,1.3-6.8,3.8-9.4
		c4.2-4.3,9.3-5.5,15-3.7c0.5,0.2,0.8,0.1,1.1-0.4c0.5-0.8,1-1.6,1.6-2.4c0.2-0.2,0.5-0.6,0.7-0.5c0.3,0.1,0.5,0.4,0.7,0.7
		c1.8,4.2,3.6,8.4,5.4,12.6c0.1,0.2,0.2,0.4,0.3,0.6C176.2-116,176.2-115.8,176.2-115.6z"/>
	<path class="st2" d="M158.6-144.7c1,0,1.9,0,2.8,0c4.8,0,8.1,3.3,8.1,8.1c0,1.6,0,3.2,0,4.8c0,0.4-0.1,0.8-0.6,0.8
		c-0.5,0-0.6-0.4-0.6-0.8c0-1.6,0-3.3,0-4.9c0-4.1-2.8-6.9-6.8-6.9c-13.6,0-27.2,0-40.9,0c-4,0-6.8,2.9-6.8,6.9c0,2.5,0,5,0,7.6
		c0.9,0,1.8,0,2.7-0.2c1-0.2,1.7-1.1,1.8-2.2c0.2-1.8,1-2.6,2.8-2.6c0.8,0,1.6,0,2.5,0c0-0.9,0-1.7,0-2.5c0-1.5,0.8-2.2,2.2-2.2
		c2.1,0,4.2,0,6.3,0c1.6,0,2.3,0.8,2.3,2.4c0,9.4,0,18.8,0,28.1c0,0.3,0,0.6,0,0.9c4.7,0,9.4,0,14.1,0c-0.4-1-0.8-2-1.3-3
		c-0.4-0.9-0.2-1.1,0.7-1.1c4.7,0,9.4,0,14.1,0c0.3,0,0.7,0.1,0.8,0.3c0.1,0.2,0,0.6-0.2,0.9c-0.5,0.9-1.1,1.7-1.8,2.8
		c0.7-0.1,1.3,0,1.9-0.2c2.6-0.6,4.3-2.6,4.6-5.2c0.1-0.4-0.1-1.1,0.6-1c0.7,0.1,0.5,0.7,0.5,1.1c-0.4,4.1-4.2,7-8.3,6.3
		c-0.9-0.2-1-0.5-0.5-1.3c0.5-0.8,1.1-1.6,1.6-2.5c-4.3,0-8.5,0-12.8,0c1.7,3.9,3.4,7.8,5.1,11.8c0.6-0.9,1.2-1.8,1.7-2.6
		c0.3-0.5,0.6-0.6,1.2-0.4c7.9,3.2,16.2-1.3,17.9-9.6c0.1-0.7,0.2-1.4,0.2-2.1c0-0.4,0.1-0.9,0.6-0.9c0.5,0,0.5,0.5,0.5,0.9
		c0,6.7-5.3,12.7-12,13.7c-2.4,0.3-4.8,0.2-7-0.7c-0.4-0.1-0.6-0.1-0.8,0.3c-0.5,0.9-1.1,1.7-1.6,2.5c-0.2,0.3-0.5,0.6-0.8,0.6
		c-0.2,0-0.5-0.4-0.7-0.7c-1.2-2.7-2.3-5.4-3.5-8.1c-0.2-0.5-0.4-0.6-0.9-0.6c-4.4,0-8.8,0-13.2,0c-0.2,0-0.4,0-0.7,0
		c0,0.2-0.1,0.4-0.1,0.6c0,0.8,0,1.7,0,2.5c0,1.6-1,2.6-2.6,2.6c-3.7,0-7.4,0-11.1,0c-3.9,0-7.8,0-11.7,0c-1.7,0-2.7-1-2.7-2.7
		c0-7.8,0-15.6,0-23.4c0-1.6,1-2.6,2.6-2.6c1.2,0,2.3,0,3.5,0c0,0,0.1,0,0.2-0.1c0-0.2,0-0.5,0-0.8c0-2.4-0.1-4.8,0-7.2
		c0.2-4.4,3.4-7.5,7.8-7.6c1,0,2,0,3.1,0c0-0.3,0-0.6,0-0.9c0-6.3,0-12.6,0-18.9c0-1,0.1-1.1,1.1-1.1c7.9,0,15.7,0,23.6,0
		c0.5,0,0.8,0.1,1.2,0.5c2.8,2.8,5.6,5.6,8.4,8.4c0.4,0.4,0.6,0.8,0.6,1.4c0,3.2,0,6.5,0,9.7C158.6-145.4,158.6-145.1,158.6-144.7z
		 M157.4-144.8c0-3.6,0-7.1,0-10.6c-2.7,0-5.4,0-8.1,0c-0.9,0-1-0.1-1-1c0-2.5,0-4.9,0-7.4c0-0.2,0-0.5,0-0.7c-7.8,0-15.6,0-23.3,0
		c0,6.6,0,13.1,0,19.7C135.8-144.8,146.6-144.8,157.4-144.8z M133.5-132.8c-0.1-0.1-0.2-0.1-0.2-0.1c-4.1,0-8.3,0-12.4,0
		c-0.8,0-1.3,0.5-1.3,1.4c-0.2,2.2-1.6,3.5-3.9,3.5c-2.1,0-4.2,0-6.3,0c-1.3,0-1.8,0.4-1.8,1.8c0,7.6,0,15.2,0,22.8
		c0,1.3,0.4,1.8,1.8,1.8c7.4,0,14.8,0,22.3,0c1.4,0,1.8-0.4,1.8-1.8c0-9.6,0-19.1,0-28.7C133.5-132.4,133.5-132.6,133.5-132.8z
		 M133.4-134.1c0-1,0-1.9,0-2.8c0-0.5-0.4-0.7-0.8-0.7c-2.3,0-4.6,0-6.9,0c-0.5,0-0.8,0.3-0.8,0.7c0,0.9,0,1.8,0,2.8
		C127.8-134.1,130.6-134.1,133.4-134.1z M156.4-156.5c-2.3-2.3-4.6-4.6-6.9-6.9c0,2.3,0,4.6,0,6.9
		C151.9-156.5,154.2-156.5,156.4-156.5z"/>
	<path class="st2" d="M146.5-131.8c0,1.7-1.1,2.9-2.7,2.8c-1.5,0-2.7-1.2-2.5-2.9c0.1-1,0.4-2,0.8-3c0.3-0.9,0.8-1.7,1.2-2.6
		c0.3-0.5,0.8-0.6,1-0.1c0.9,1.7,1.8,3.3,2.1,5.2C146.5-132.1,146.5-132,146.5-131.8z M143.8-135.9c-0.4,0.9-0.8,1.8-1.1,2.8
		c-0.2,0.5-0.2,1.1-0.2,1.7c0,0.7,0.4,1.1,1.1,1.3c0.6,0.2,1.2,0,1.5-0.5c0.2-0.4,0.4-0.9,0.3-1.3
		C145.3-133.4,144.6-134.6,143.8-135.9z"/>
	<path class="st2" d="M154.6-131.9c0,1.8-1.1,2.9-2.6,2.9c-1.6,0-2.7-1.2-2.6-2.8c0.1-1.1,0.5-2.1,0.9-3.2c0.3-0.8,0.8-1.6,1.2-2.4
		c0.3-0.5,0.8-0.6,1-0.1c0.9,1.6,1.7,3.2,2.1,5C154.6-132.2,154.6-132,154.6-131.9z M152.1-135.9c-0.1,0-0.2,0-0.2,0
		c-0.1,0.1-0.1,0.2-0.2,0.3c-0.3,0.7-0.7,1.5-1,2.2c-0.2,0.6-0.3,1.2-0.3,1.9c0,1.2,1.2,1.8,2.2,1.2c0.7-0.4,0.9-1.1,0.7-1.8
		C153.1-133.4,152.6-134.7,152.1-135.9z"/>
	<path class="st2" d="M162.6-131.8c0,1.7-1,2.8-2.6,2.9c-1.6,0-2.8-1.2-2.6-2.9c0.1-1.1,0.5-2.2,0.9-3.2c0.3-0.8,0.7-1.6,1.1-2.3
		c0.3-0.5,0.8-0.6,1-0.1c0.9,1.7,1.9,3.4,2.2,5.4C162.6-132,162.6-131.9,162.6-131.8z M160.2-135.9c-0.1,0-0.2,0-0.3,0
		c-0.4,1-0.9,2-1.2,3.1c-0.2,0.6-0.1,1.2,0,1.8c0.1,0.6,0.7,0.9,1.3,0.9c0.6,0,1.2-0.3,1.4-0.9c0.1-0.4,0.2-0.9,0.1-1.3
		C161.1-133.5,160.6-134.7,160.2-135.9z"/>
	<path class="st2" d="M138.2-150c-1.5,0-3.1,0-4.6,0c-0.4,0-1,0-0.9-0.6c0-0.6,0.5-0.6,0.9-0.6c3.1,0,6.3,0,9.4,0
		c0.3,0,0.7,0.1,0.8,0.3c0.3,0.4,0,0.8-0.7,0.8C141.5-150,139.9-150,138.2-150z"/>
	<path class="st2" d="M138.3-157.3c-1.6,0-3.2,0-4.8,0c-0.4,0-0.8,0-0.9-0.5c0-0.6,0.4-0.6,0.9-0.6c3.2,0,6.3,0,9.5,0
		c0.4,0,0.8,0.1,0.8,0.6c0,0.5-0.4,0.6-0.8,0.6C141.4-157.3,139.9-157.3,138.3-157.3z"/>
	<path class="st2" d="M138.2-153.6c-1.6,0-3.1,0-4.7,0c-0.4,0-0.8,0-0.9-0.5c0-0.6,0.4-0.6,0.9-0.6c3.2,0,6.3,0,9.5,0
		c0.3,0,0.7,0.3,0.8,0.5c0.1,0.5-0.3,0.6-0.7,0.6C141.5-153.6,139.8-153.6,138.2-153.6z"/>
	<path class="st2" d="M129.9-117c0,2.6,0,5.3,0,7.9c0,1.8-1.1,2.9-2.9,2.9c-4,0-8,0-12,0c-1.8,0-2.9-1.1-2.9-2.9c0-2.4,0-4.8,0-7.1
		c0-0.9,0.3-1.6,0.9-2.2c2.7-2.8,5.5-5.6,8.2-8.5c0.7-0.7,1.5-1,2.4-1c1.2,0,2.3,0,3.5,0c1.8,0,2.9,1.1,2.9,2.9
		C129.9-122.4,129.9-119.7,129.9-117z M128.8-117.1c0-2.7,0-5.3,0-8c0-1.2-0.6-1.8-1.8-1.8c-1.2,0-2.4,0-3.6,0
		c-0.6,0-1.1,0.2-1.5,0.6c-2.7,2.8-5.5,5.6-8.1,8.5c-0.3,0.4-0.6,1-0.6,1.5c-0.1,2.3,0,4.6,0,6.9c0,1.3,0.6,1.9,1.9,1.9
		c3.9,0,7.9,0,11.8,0c1.4,0,2-0.6,2-1.9C128.8-111.9,128.8-114.5,128.8-117.1z"/>
	<path class="st2" d="M119.5-115.1c0.2-0.5,0.5-1.5,0.8-2.5c0.3-0.9,0.8-1.7,1.2-2.5c0.3-0.5,0.8-0.6,1.1-0.1
		c0.9,1.7,1.9,3.4,2.1,5.4c0.2,2.2-1.6,3.7-3.6,3C120.1-112.2,119.5-113.2,119.5-115.1z M122.3-118.6c-0.1,0-0.2,0-0.3,0
		c-0.4,1.3-0.9,2.6-1.3,3.9c-0.1,0.3,0,0.7,0.1,1c0.2,0.6,0.7,1,1.4,1c0.6,0,1.2-0.3,1.3-0.9c0.1-0.5,0.2-1.1,0-1.7
		C123.2-116.5,122.7-117.5,122.3-118.6z"/>
</g>
<path class="st1" d="M34.9,0C54.3,0,70,15.7,70,35.1C70,54.5,54.3,70,34.7,70C15.7,70,0,54.2,0,35.1C0,15.7,15.6,0,34.9,0z M34.9,65
	C51.5,65.1,64.9,51.7,65,35.1C65.1,18.7,51.7,5.1,35.3,5C18.6,4.9,5.1,18.3,5,34.8C4.9,51.4,18.3,64.9,34.9,65z"/>
<path class="st1" d="M25,35c0,2.8-2.2,5-5,5c-2.7,0-5-2.2-5-4.9c0-2.8,2.2-5,5-5.1C22.7,30,25,32.2,25,35z"/>
<path class="st1" d="M40,35c0,2.8-2.3,5-5,5c-2.7,0-5-2.2-5-5c0-2.8,2.2-5,5-5C37.7,30,40,32.2,40,35z"/>
<path class="st1" d="M55,35c0,2.8-2.3,5-5,5c-2.7,0-5-2.2-5-5c0-2.8,2.2-5,5-5C52.8,30,55,32.2,55,35z"/>
</svg>
