<svg xmlns="http://www.w3.org/2000/svg" xmlns:xlink="http://www.w3.org/1999/xlink" width="70" zoomAndPan="magnify" viewBox="0 0 52.5 52.499999" height="70" preserveAspectRatio="xMidYMid meet" version="1.0"><defs><clipPath id="a7d4f047cc"><path d="M 0 0 L 52.003906 0 L 52.003906 52.003906 L 0 52.003906 Z M 0 0 " clip-rule="nonzero"/></clipPath></defs><path fill="#595959" d="M 22.472656 18.117188 C 22.640625 18.285156 22.855469 18.367188 23.074219 18.367188 C 23.289062 18.367188 23.507812 18.285156 23.671875 18.117188 L 26.25 15.542969 L 28.828125 18.117188 C 28.992188 18.285156 29.210938 18.367188 29.425781 18.367188 C 29.644531 18.367188 29.859375 18.285156 30.027344 18.117188 C 30.355469 17.789062 30.355469 17.253906 30.027344 16.921875 L 27.449219 14.34375 L 30.027344 11.765625 C 30.355469 11.4375 30.355469 10.898438 30.027344 10.570312 C 29.695312 10.238281 29.160156 10.238281 28.828125 10.570312 L 26.25 13.144531 L 23.671875 10.570312 C 23.34375 10.238281 22.804688 10.238281 22.476562 10.570312 C 22.144531 10.898438 22.144531 11.4375 22.476562 11.765625 L 25.054688 14.34375 L 22.476562 16.921875 C 22.144531 17.253906 22.144531 17.789062 22.472656 18.117188 Z M 22.472656 18.117188 " fill-opacity="1" fill-rule="nonzero"/><g clip-path="url(#a7d4f047cc)"><path fill="#595959" d="M 46.914062 11.671875 L 37.882812 11.671875 L 37.882812 3.878906 C 37.882812 1.738281 36.144531 0 34.003906 0 L 18.496094 0 C 16.355469 0 14.617188 1.738281 14.617188 3.878906 L 14.617188 9.28125 C 14.617188 9.75 14.996094 10.128906 15.464844 10.128906 C 15.929688 10.128906 16.308594 9.75 16.308594 9.28125 L 16.308594 3.878906 C 16.308594 2.671875 17.289062 1.695312 18.496094 1.695312 L 34.003906 1.695312 C 35.210938 1.695312 36.191406 2.671875 36.191406 3.878906 L 36.191406 11.671875 L 34.902344 11.671875 C 33.761719 7.976562 30.316406 5.285156 26.25 5.285156 C 22.183594 5.285156 18.738281 7.976562 17.597656 11.671875 L 5.585938 11.671875 C 2.507812 11.671875 0 14.175781 0 17.257812 L 0 32.90625 C 0 34.710938 1.46875 36.179688 3.273438 36.179688 L 12.6875 36.179688 L 12.6875 49.34375 C 12.6875 51.082031 14.105469 52.5 15.84375 52.5 L 31.300781 52.5 C 31.527344 52.5 31.742188 52.410156 31.902344 52.253906 L 39.5625 44.589844 C 39.722656 44.429688 39.8125 44.214844 39.8125 43.992188 L 39.8125 36.179688 L 49.226562 36.179688 C 51.03125 36.179688 52.5 34.710938 52.5 32.90625 L 52.5 17.257812 C 52.5 14.175781 49.992188 11.671875 46.914062 11.671875 Z M 20.714844 21.511719 C 21.082031 21.800781 21.613281 21.730469 21.902344 21.363281 C 22.1875 20.992188 22.117188 20.460938 21.75 20.175781 C 19.929688 18.765625 18.886719 16.640625 18.886719 14.34375 C 18.886719 10.285156 22.191406 6.980469 26.25 6.980469 C 30.308594 6.980469 33.613281 10.285156 33.613281 14.34375 C 33.613281 18.40625 30.308594 21.710938 26.25 21.710938 C 25.5625 21.710938 24.882812 21.613281 24.230469 21.429688 C 23.78125 21.300781 23.3125 21.5625 23.1875 22.011719 C 23.058594 22.460938 23.320312 22.929688 23.769531 23.058594 C 24.574219 23.289062 25.40625 23.402344 26.25 23.402344 C 31.242188 23.402344 35.308594 19.339844 35.308594 14.34375 C 35.308594 14.015625 35.289062 13.6875 35.253906 13.367188 L 40.40625 13.367188 L 40.40625 26.605469 L 12.09375 26.605469 L 12.09375 13.363281 L 17.246094 13.363281 C 17.210938 13.6875 17.191406 14.011719 17.191406 14.34375 C 17.191406 17.167969 18.476562 19.78125 20.714844 21.511719 Z M 1.695312 32.90625 L 1.695312 17.257812 C 1.695312 15.109375 3.441406 13.363281 5.585938 13.363281 L 10.398438 13.363281 L 10.398438 26.605469 L 8.992188 26.605469 C 8.527344 26.605469 8.148438 26.984375 8.148438 27.449219 L 8.148438 34.484375 L 3.273438 34.484375 C 2.402344 34.484375 1.695312 33.777344 1.695312 32.90625 Z M 9.839844 34.484375 L 9.839844 28.296875 L 12.6875 28.296875 L 12.6875 34.484375 Z M 14.382812 49.34375 L 14.382812 28.296875 L 38.117188 28.296875 L 38.117188 43.144531 L 33.847656 43.144531 C 31.976562 43.144531 30.457031 44.664062 30.457031 46.535156 L 30.457031 50.804688 L 15.84375 50.804688 C 15.039062 50.804688 14.382812 50.148438 14.382812 49.34375 Z M 36.921875 44.835938 L 32.148438 49.609375 L 32.148438 46.535156 C 32.148438 45.601562 32.910156 44.835938 33.847656 44.835938 Z M 50.804688 32.90625 C 50.804688 33.777344 50.097656 34.484375 49.226562 34.484375 L 39.8125 34.484375 L 39.8125 28.296875 L 42.660156 28.296875 L 42.660156 31.414062 C 42.660156 31.882812 43.039062 32.261719 43.507812 32.261719 C 43.972656 32.261719 44.351562 31.882812 44.351562 31.414062 L 44.351562 27.449219 C 44.351562 26.984375 43.972656 26.605469 43.507812 26.605469 L 42.101562 26.605469 L 42.101562 13.363281 L 46.910156 13.363281 C 49.058594 13.363281 50.804688 15.113281 50.804688 17.257812 Z M 50.804688 32.90625 " fill-opacity="1" fill-rule="nonzero"/></g><path fill="#595959" d="M 19.789062 34.132812 L 32.707031 34.132812 C 33.175781 34.132812 33.554688 33.753906 33.554688 33.285156 C 33.554688 32.816406 33.175781 32.4375 32.707031 32.4375 L 19.789062 32.4375 C 19.324219 32.4375 18.945312 32.816406 18.945312 33.285156 C 18.945312 33.753906 19.324219 34.132812 19.789062 34.132812 Z M 19.789062 34.132812 " fill-opacity="1" fill-rule="nonzero"/><path fill="#595959" d="M 32.710938 38.839844 C 33.175781 38.839844 33.554688 38.460938 33.554688 37.996094 C 33.554688 37.527344 33.175781 37.148438 32.710938 37.148438 L 19.789062 37.148438 C 19.324219 37.148438 18.945312 37.527344 18.945312 37.996094 C 18.945312 38.460938 19.324219 38.839844 19.789062 38.839844 Z M 32.710938 38.839844 " fill-opacity="1" fill-rule="nonzero"/></svg>