<svg xmlns="http://www.w3.org/2000/svg" xmlns:xlink="http://www.w3.org/1999/xlink" width="70" zoomAndPan="magnify" viewBox="0 0 52.5 52.499999" height="70" preserveAspectRatio="xMidYMid meet" version="1.0"><defs><clipPath id="9b61f56f33"><path d="M 2.722656 0 L 34 0 L 34 7 L 2.722656 7 Z M 2.722656 0 " clip-rule="nonzero"/></clipPath><clipPath id="7fc33ece73"><path d="M 6 29 L 33 29 L 33 52.003906 L 6 52.003906 Z M 6 29 " clip-rule="nonzero"/></clipPath><clipPath id="e2ee326e8a"><path d="M 30 11 L 49.972656 11 L 49.972656 31 L 30 31 Z M 30 11 " clip-rule="nonzero"/></clipPath></defs><path fill="#595959" d="M 26.292969 19.699219 L 26.292969 18.609375 L 10.945312 18.609375 L 10.945312 19.699219 C 10.945312 20.203125 10.996094 20.699219 11.09375 21.191406 C 11.191406 21.683594 11.335938 22.160156 11.53125 22.625 C 11.722656 23.089844 11.957031 23.527344 12.238281 23.945312 C 12.519531 24.363281 12.835938 24.75 13.191406 25.101562 C 13.550781 25.457031 13.9375 25.773438 14.355469 26.054688 C 14.773438 26.332031 15.21875 26.566406 15.683594 26.761719 C 16.148438 26.953125 16.628906 27.097656 17.121094 27.195312 C 17.617188 27.292969 18.117188 27.339844 18.621094 27.339844 C 19.125 27.339844 19.621094 27.292969 20.117188 27.195312 C 20.609375 27.097656 21.089844 26.953125 21.554688 26.761719 C 22.023438 26.566406 22.464844 26.332031 22.882812 26.054688 C 23.300781 25.773438 23.691406 25.457031 24.046875 25.101562 C 24.402344 24.75 24.71875 24.363281 25 23.945312 C 25.28125 23.527344 25.515625 23.089844 25.710938 22.625 C 25.902344 22.160156 26.046875 21.683594 26.144531 21.191406 C 26.246094 20.699219 26.292969 20.203125 26.292969 19.699219 Z M 26.292969 19.699219 " fill-opacity="1" fill-rule="nonzero"/><g clip-path="url(#9b61f56f33)"><path fill="#595959" d="M 2.722656 0.0507812 L 33.417969 0.0507812 L 33.417969 6.601562 L 2.722656 6.601562 Z M 2.722656 0.0507812 " fill-opacity="1" fill-rule="nonzero"/></g><path fill="#595959" d="M 42.683594 20.214844 L 39.382812 23.5 L 39.382812 23.488281 Z M 42.683594 20.214844 " fill-opacity="1" fill-rule="nonzero"/><path fill="#595959" d="M 46.640625 21.328125 L 38.441406 29.21875 L 39.085938 25.34375 L 43.898438 20.550781 Z M 46.640625 21.328125 " fill-opacity="1" fill-rule="nonzero"/><path fill="#595959" d="M 40.832031 17.40625 L 36.433594 21.785156 L 34.308594 21.25 L 40.46875 14.089844 Z M 40.832031 17.40625 " fill-opacity="1" fill-rule="nonzero"/><g clip-path="url(#7fc33ece73)"><path fill="#595959" d="M 32.871094 49.722656 L 32.871094 51.359375 C 32.871094 51.503906 32.84375 51.640625 32.789062 51.777344 C 32.730469 51.910156 32.652344 52.027344 32.550781 52.128906 C 32.449219 52.234375 32.328125 52.3125 32.195312 52.367188 C 32.058594 52.421875 31.921875 52.449219 31.773438 52.449219 C 31.628906 52.449219 31.488281 52.421875 31.355469 52.367188 C 31.222656 52.3125 31.101562 52.234375 31 52.128906 C 30.898438 52.027344 30.816406 51.910156 30.761719 51.777344 C 30.707031 51.640625 30.679688 51.503906 30.679688 51.359375 L 30.679688 49.722656 C 30.679688 49.214844 30.582031 48.726562 30.386719 48.257812 C 30.191406 47.789062 29.914062 47.378906 29.554688 47.019531 C 29.195312 46.660156 28.78125 46.382812 28.308594 46.191406 C 27.839844 45.996094 27.351562 45.898438 26.839844 45.898438 L 12.589844 45.898438 C 12.195312 45.898438 11.800781 45.863281 11.414062 45.785156 C 11.027344 45.707031 10.648438 45.59375 10.28125 45.441406 C 9.917969 45.292969 9.570312 45.105469 9.238281 44.886719 C 8.910156 44.667969 8.605469 44.421875 8.328125 44.140625 C 8.046875 43.863281 7.796875 43.558594 7.578125 43.230469 C 7.355469 42.902344 7.171875 42.558594 7.019531 42.195312 C 6.867188 41.828125 6.753906 41.453125 6.675781 41.066406 C 6.597656 40.679688 6.558594 40.289062 6.558594 39.894531 C 6.558594 39.5 6.597656 39.109375 6.675781 38.722656 C 6.753906 38.335938 6.867188 37.960938 7.019531 37.597656 C 7.171875 37.234375 7.355469 36.886719 7.578125 36.558594 C 7.796875 36.230469 8.046875 35.929688 8.328125 35.648438 C 8.605469 35.371094 8.910156 35.121094 9.238281 34.902344 C 9.570312 34.683594 9.917969 34.5 10.28125 34.347656 C 10.648438 34.199219 11.027344 34.082031 11.414062 34.007812 C 11.800781 33.929688 12.195312 33.890625 12.589844 33.890625 L 13.6875 33.890625 C 14.195312 33.890625 14.683594 33.792969 15.15625 33.601562 C 15.625 33.40625 16.039062 33.128906 16.398438 32.773438 C 16.757812 32.414062 17.035156 32 17.230469 31.53125 C 17.425781 31.066406 17.523438 30.578125 17.523438 30.070312 L 17.523438 29.460938 C 18.253906 29.546875 18.984375 29.546875 19.714844 29.460938 L 19.714844 30.070312 C 19.714844 30.464844 19.675781 30.855469 19.597656 31.242188 C 19.519531 31.628906 19.40625 32.003906 19.253906 32.367188 C 19.101562 32.730469 18.917969 33.078125 18.695312 33.402344 C 18.476562 33.730469 18.226562 34.035156 17.945312 34.3125 C 17.667969 34.59375 17.363281 34.839844 17.035156 35.058594 C 16.703125 35.277344 16.359375 35.464844 15.992188 35.613281 C 15.625 35.765625 15.25 35.878906 14.863281 35.957031 C 14.472656 36.035156 14.082031 36.074219 13.6875 36.074219 L 12.589844 36.074219 C 12.082031 36.074219 11.589844 36.171875 11.121094 36.367188 C 10.652344 36.558594 10.238281 36.835938 9.875 37.195312 C 9.515625 37.550781 9.238281 37.964844 9.046875 38.433594 C 8.851562 38.902344 8.753906 39.390625 8.753906 39.894531 C 8.753906 40.402344 8.851562 40.890625 9.046875 41.359375 C 9.238281 41.824219 9.515625 42.238281 9.875 42.597656 C 10.238281 42.957031 10.652344 43.230469 11.121094 43.425781 C 11.589844 43.621094 12.082031 43.714844 12.589844 43.714844 L 26.839844 43.714844 C 27.238281 43.71875 27.628906 43.757812 28.015625 43.832031 C 28.40625 43.910156 28.78125 44.027344 29.148438 44.175781 C 29.511719 44.328125 29.859375 44.511719 30.1875 44.730469 C 30.519531 44.949219 30.824219 45.199219 31.101562 45.476562 C 31.382812 45.757812 31.632812 46.058594 31.851562 46.386719 C 32.070312 46.714844 32.257812 47.0625 32.410156 47.425781 C 32.5625 47.789062 32.675781 48.164062 32.753906 48.550781 C 32.832031 48.9375 32.871094 49.328125 32.871094 49.722656 Z M 32.871094 49.722656 " fill-opacity="1" fill-rule="nonzero"/></g><path fill="#595959" d="M 38.570312 22.308594 L 37.683594 22.089844 L 35.875 23.890625 L 37.058594 24.1875 L 36.730469 26.140625 L 39.382812 23.5 C 39.417969 23.226562 39.355469 22.980469 39.203125 22.753906 C 39.046875 22.527344 38.835938 22.378906 38.570312 22.308594 Z M 43.101562 18.0625 L 42.96875 16.828125 L 40.984375 18.804688 L 40.984375 19.011719 C 41.007812 19.230469 41.09375 19.425781 41.238281 19.597656 C 41.378906 19.765625 41.558594 19.878906 41.773438 19.941406 L 42.671875 20.191406 L 44.4375 18.433594 Z M 43.101562 18.0625 " fill-opacity="1" fill-rule="nonzero"/><g clip-path="url(#e2ee326e8a)"><path fill="#595959" d="M 49.546875 13.378906 L 32.554688 30.300781 C 32.449219 30.402344 32.332031 30.484375 32.195312 30.539062 C 32.0625 30.59375 31.921875 30.621094 31.773438 30.621094 C 31.628906 30.621094 31.488281 30.59375 31.351562 30.539062 C 31.21875 30.484375 31.101562 30.402344 30.996094 30.300781 C 30.894531 30.199219 30.8125 30.078125 30.757812 29.945312 C 30.699219 29.808594 30.671875 29.671875 30.671875 29.523438 C 30.671875 29.378906 30.699219 29.238281 30.757812 29.105469 C 30.8125 28.972656 30.894531 28.851562 30.996094 28.75 L 35.875 23.890625 L 37.683594 22.089844 L 40.972656 18.816406 L 42.957031 16.839844 L 47.976562 11.839844 C 48.082031 11.738281 48.199219 11.660156 48.335938 11.601562 C 48.46875 11.546875 48.609375 11.519531 48.757812 11.519531 C 48.902344 11.519531 49.042969 11.546875 49.175781 11.605469 C 49.3125 11.660156 49.429688 11.738281 49.535156 11.839844 C 49.636719 11.945312 49.714844 12.0625 49.773438 12.195312 C 49.828125 12.332031 49.855469 12.46875 49.855469 12.617188 C 49.855469 12.761719 49.828125 12.898438 49.773438 13.035156 C 49.71875 13.167969 49.636719 13.289062 49.535156 13.390625 Z M 49.546875 13.378906 " fill-opacity="1" fill-rule="nonzero"/><path fill="#595959" d="M 49.546875 13.378906 L 32.554688 30.300781 C 32.449219 30.402344 32.332031 30.484375 32.195312 30.539062 C 32.0625 30.59375 31.921875 30.621094 31.773438 30.621094 C 31.628906 30.621094 31.488281 30.59375 31.351562 30.539062 C 31.21875 30.484375 31.101562 30.402344 30.996094 30.300781 C 30.894531 30.199219 30.8125 30.078125 30.757812 29.945312 C 30.699219 29.808594 30.671875 29.671875 30.671875 29.523438 C 30.671875 29.378906 30.699219 29.238281 30.757812 29.105469 C 30.8125 28.972656 30.894531 28.851562 30.996094 28.75 L 35.875 23.890625 L 37.683594 22.089844 L 40.972656 18.816406 L 42.957031 16.839844 L 47.976562 11.839844 C 48.082031 11.738281 48.199219 11.660156 48.335938 11.601562 C 48.46875 11.546875 48.609375 11.519531 48.757812 11.519531 C 48.902344 11.519531 49.042969 11.546875 49.175781 11.605469 C 49.3125 11.660156 49.429688 11.738281 49.535156 11.839844 C 49.636719 11.945312 49.714844 12.0625 49.773438 12.195312 C 49.828125 12.332031 49.855469 12.46875 49.855469 12.617188 C 49.855469 12.761719 49.828125 12.898438 49.773438 13.035156 C 49.71875 13.167969 49.636719 13.289062 49.535156 13.390625 Z M 49.546875 13.378906 " fill-opacity="1" fill-rule="nonzero"/></g><path fill="#595959" d="M 13.136719 12.058594 L 13.136719 16.425781 L 10.945312 16.425781 L 10.945312 12.058594 C 10.945312 11.914062 10.972656 11.773438 11.027344 11.640625 C 11.085938 11.507812 11.164062 11.390625 11.265625 11.285156 C 11.371094 11.183594 11.488281 11.105469 11.621094 11.050781 C 11.757812 10.996094 11.898438 10.964844 12.042969 10.964844 C 12.1875 10.964844 12.328125 10.996094 12.460938 11.050781 C 12.597656 11.105469 12.714844 11.183594 12.816406 11.285156 C 12.917969 11.390625 13 11.507812 13.054688 11.640625 C 13.109375 11.773438 13.136719 11.914062 13.136719 12.058594 Z M 13.136719 12.058594 " fill-opacity="1" fill-rule="nonzero"/><path fill="#595959" d="M 19.714844 10.964844 L 19.714844 16.425781 L 17.523438 16.425781 L 17.523438 10.964844 C 17.523438 10.820312 17.550781 10.683594 17.605469 10.550781 C 17.664062 10.414062 17.742188 10.296875 17.84375 10.195312 C 17.945312 10.09375 18.066406 10.011719 18.199219 9.957031 C 18.335938 9.902344 18.472656 9.875 18.621094 9.875 C 18.765625 9.875 18.90625 9.902344 19.039062 9.957031 C 19.171875 10.011719 19.292969 10.09375 19.394531 10.195312 C 19.496094 10.296875 19.578125 10.414062 19.632812 10.550781 C 19.6875 10.683594 19.714844 10.820312 19.714844 10.964844 Z M 19.714844 10.964844 " fill-opacity="1" fill-rule="nonzero"/><path fill="#595959" d="M 26.292969 12.058594 L 26.292969 16.425781 L 24.101562 16.425781 L 24.101562 12.058594 C 24.101562 11.914062 24.128906 11.773438 24.183594 11.640625 C 24.238281 11.507812 24.320312 11.390625 24.421875 11.285156 C 24.523438 11.183594 24.644531 11.105469 24.777344 11.050781 C 24.914062 10.996094 25.050781 10.964844 25.199219 10.964844 C 25.34375 10.964844 25.484375 10.996094 25.617188 11.050781 C 25.75 11.105469 25.871094 11.183594 25.972656 11.285156 C 26.074219 11.390625 26.15625 11.507812 26.210938 11.640625 C 26.265625 11.773438 26.292969 11.914062 26.292969 12.058594 Z M 26.292969 12.058594 " fill-opacity="1" fill-rule="nonzero"/></svg>