<?xml version="1.0" encoding="utf-8"?>
<!-- Generator: Adobe Illustrator 24.3.0, SVG Export Plug-In . SVG Version: 6.00 Build 0)  -->
<svg version="1.1" id="Layer_1" xmlns="http://www.w3.org/2000/svg" xmlns:xlink="http://www.w3.org/1999/xlink" x="0px" y="0px"
	 viewBox="0 0 70 70" style="enable-background:new 0 0 70 70;" xml:space="preserve">
<style type="text/css">
	.st0{clip-path:url(#SVGID_2_);}
	.st1{fill:#595959;}
</style>
<g>
	<defs>
		<rect id="SVGID_1_" y="1.3" width="69" height="67.9"/>
	</defs>
	<clipPath id="SVGID_2_">
		<use xlink:href="#SVGID_1_"  style="overflow:visible;"/>
	</clipPath>
	<g class="st0">
		<path class="st1" d="M61.6,49.2h4.2v-1.9h-4.2V49.2z M61.6,52.2h4.2v-1.9h-4.2V52.2z M67.4,38.8c-0.7-0.5-1.5-0.8-2.4-0.8H4.1
			c-0.9,0-1.8,0.3-2.4,0.8v-7.2c0-1.4,1.1-2.5,2.4-2.5h60.9c1.3,0,2.4,1.1,2.4,2.5V38.8z M67.4,54.3c0,1.4-1.1,2.5-2.4,2.5h-7.7
			v-0.8h2.5v-9.7H9.3v9.7h2.5v0.8H4.1c-1.3,0-2.4-1.1-2.4-2.5V42.1c0-1.4,1.1-2.5,2.4-2.5h60.9c1.3,0,2.4,1.1,2.4,2.5V54.3z
			 M56.4,49H12.6c-0.4,0-0.8,0.4-0.8,0.8v4.5h-0.9v-6.5h47.2v6.5h-0.9v-4.5C57.2,49.3,56.8,49,56.4,49z M55.6,67.6H13.4v-17h42.2
			V67.6z M10.1,16.9h1.7v10.6h-1.7V16.9z M13.4,2.9h42.2v24.6H13.4V2.9z M57.2,16.9h1.7v10.6h-1.7V16.9z M64.9,27.5h-4.4V16.1
			c0-0.4-0.4-0.8-0.8-0.8h-2.5V2.1c0-0.4-0.4-0.8-0.8-0.8H12.6c-0.4,0-0.8,0.4-0.8,0.8v13.2H9.3c-0.4,0-0.8,0.4-0.8,0.8v11.4H4.1
			c-2.2,0-4.1,1.8-4.1,4.1v22.7c0,2.2,1.8,4.1,4.1,4.1h7.7v10c0,0.4,0.4,0.8,0.8,0.8h43.8c0.4,0,0.8-0.4,0.8-0.8v-10h7.7
			c2.2,0,4.1-1.8,4.1-4.1V31.6C69,29.3,67.2,27.5,64.9,27.5z M61.6,55.2h4.2v-1.9h-4.2V55.2"/>
	</g>
</g>
<g>
	<path class="st1" d="M28.3,22.7c-0.4-0.4-0.8-0.8-1.2-1.1c-0.1,0.1-0.3,0.3-0.4,0.4c-0.3,0.3-0.7,0.7-1,1c-0.3,0.3-0.7,0.2-0.8-0.2
		c-0.7-2.2,1-4.4,3.3-4.2c0.1,0,0.2,0,0.2-0.1c0.9-0.9,1.8-1.8,2.7-2.7c0.1-0.1,0.1-0.2,0-0.3C30.2,13,31.4,10.2,34,9
		c3.2-1.4,6.9,0.6,7.4,4c0.4,2.9-1.5,5.5-4.4,6c-0.9,0.2-1.9,0.1-2.8-0.3c-0.1-0.1-0.2,0-0.3,0.1c-0.8,0.8-1.7,1.7-2.5,2.5
		c-0.1,0.1-0.2,0.2-0.2,0.4c0,1.5-0.8,2.7-2.1,3.2c-0.7,0.2-1.4,0.3-2.1,0c-0.4-0.1-0.5-0.5-0.2-0.8c0.4-0.5,0.9-0.9,1.3-1.3
		C28.2,22.8,28.2,22.8,28.3,22.7z M25.6,21.9C25.6,21.9,25.6,21.9,25.6,21.9c0.1,0,0.1-0.1,0.2-0.1c0.3-0.3,0.7-0.7,1-1
		c0.2-0.2,0.5-0.2,0.7,0c0.5,0.5,1.1,1.1,1.6,1.6c0.2,0.2,0.2,0.5,0,0.7c-0.4,0.4-0.7,0.7-1.1,1.1c0,0-0.1,0.1-0.1,0.1
		c0.1,0,0.1,0,0.1,0c1.5,0,2.6-1.3,2.4-2.8c0-0.2,0-0.3,0.1-0.5c1.6-1.6,3.1-3.1,4.7-4.7c0.1-0.1,0.3-0.2,0.4-0.1
		c1,0.1,1.8-0.2,2.4-1.1c0.3-0.4,0.4-0.9,0.4-1.5c-0.1,0.1-0.1,0.1-0.2,0.2c-0.4,0.4-0.7,0.7-1.1,1.1c-0.2,0.2-0.4,0.2-0.7,0
		c-0.5-0.5-1.1-1.1-1.6-1.6c-0.2-0.2-0.2-0.4,0-0.7c0.3-0.4,0.7-0.7,1.1-1.1c0,0,0.1-0.1,0.1-0.2c-0.1,0-0.1,0-0.1,0
		c-1.4,0-2.6,1.3-2.4,2.7c0,0.2,0,0.4-0.2,0.6c-1.5,1.5-3.1,3.1-4.6,4.6c-0.1,0.1-0.3,0.2-0.5,0.2c-1.2-0.2-2.4,0.6-2.7,1.8
		C25.6,21.5,25.6,21.7,25.6,21.9z M34.7,18c1.4,0.6,3.8,0.3,5.1-1.6c1.3-1.8,1-4.3-0.7-5.9c-1.6-1.5-4.2-1.5-5.9-0.1
		c-0.9,0.8-1.4,1.7-1.6,2.9c-0.1,0.6,0,1.2,0.2,1.8c0.3-0.3,0.5-0.5,0.8-0.8c0.1-0.1,0.2-0.3,0.2-0.5c-0.1-2.2,2.1-3.9,4.2-3.2
		c0.4,0.1,0.5,0.5,0.2,0.8c-0.4,0.4-0.9,0.9-1.3,1.3c0,0-0.1,0.1-0.1,0.1c0.4,0.4,0.8,0.8,1.2,1.2c0,0,0.1-0.1,0.1-0.2
		c0.4-0.4,0.9-0.9,1.3-1.3c0.3-0.3,0.6-0.2,0.7,0.2c0.2,0.5,0.2,1,0.1,1.6c-0.3,1.7-1.7,2.8-3.4,2.7c-0.1,0-0.1,0-0.2,0
		C35.3,17.4,35,17.7,34.7,18z"/>
	<path class="st1" d="M40.6,8c-0.3,0.2-0.7,0.3-1,0.5c-0.2,0.1-0.4,0.1-0.6,0c-0.4-0.2-0.8-0.4-1.2-0.5c-0.2-0.1-0.3-0.2-0.4-0.4
		c-0.1-0.3-0.2-0.6-0.3-0.9c0-0.1-0.1-0.1-0.2-0.1c-0.5,0-1,0-1.6,0c-0.1,0-0.1,0-0.2,0.1c-0.1,0.3-0.2,0.6-0.3,1
		c-0.1,0.2-0.2,0.3-0.4,0.4c-0.4,0.2-0.9,0.3-1.3,0.5c-0.2,0.1-0.3,0.1-0.5,0c-0.3-0.2-0.6-0.3-0.9-0.5c-0.1,0-0.1,0-0.2,0
		c-0.4,0.4-0.7,0.8-1.1,1.1c-0.1,0.1-0.1,0.1,0,0.2c0.2,0.3,0.3,0.6,0.5,0.9c0.1,0.2,0.1,0.3,0,0.5c-0.2,0.4-0.4,0.9-0.6,1.3
		c-0.1,0.2-0.2,0.3-0.3,0.3c-0.3,0.1-0.7,0.2-1,0.3c-0.1,0-0.1,0.1-0.1,0.2c0,0.6,0,1.1,0,1.7c0.4,0.1,0.7,0.2,1.1,0.4
		c0.2,0.1,0.3,0.1,0.3,0.3c0.1,0.3-0.2,0.6-0.5,0.5c-0.5-0.2-1-0.3-1.5-0.5c-0.2-0.1-0.2-0.2-0.2-0.4c0-0.8,0-1.6,0-2.4
		c0-0.2,0.1-0.3,0.3-0.4c0.4-0.1,0.7-0.2,1.1-0.4c0.1,0,0.2-0.1,0.2-0.2c0.1-0.3,0.3-0.6,0.4-1c0-0.1,0-0.2,0-0.2
		c-0.2-0.3-0.3-0.7-0.5-1c-0.1-0.2-0.1-0.4,0.1-0.5c0.5-0.5,1.1-1.1,1.6-1.6c0.2-0.2,0.3-0.2,0.6-0.1c0.3,0.2,0.6,0.3,1,0.5
		c0.1,0.1,0.2,0.1,0.3,0c0.3-0.1,0.6-0.3,0.9-0.4c0.1,0,0.2-0.1,0.2-0.2c0.1-0.3,0.2-0.7,0.4-1c0.1-0.2,0.2-0.3,0.5-0.3
		c0.8,0,1.5,0,2.3,0c0.3,0,0.4,0.1,0.5,0.3c0.1,0.3,0.2,0.7,0.4,1c0,0.1,0.1,0.2,0.2,0.2c0.3,0.1,0.6,0.3,0.9,0.4c0.1,0,0.2,0,0.3,0
		c0.3-0.2,0.7-0.3,1-0.5c0.2-0.1,0.4-0.1,0.6,0.1c0.5,0.5,1.1,1.1,1.6,1.6c0.2,0.2,0.2,0.3,0.1,0.6c-0.2,0.3-0.3,0.6-0.5,1
		c-0.1,0.1-0.1,0.2,0,0.3c0.1,0.3,0.3,0.6,0.4,0.9c0,0.1,0.1,0.2,0.2,0.2c0.3,0.1,0.7,0.2,1,0.4c0.3,0.1,0.3,0.2,0.3,0.5
		c0,0.8,0,1.5,0,2.3c0,0.3-0.1,0.4-0.3,0.5c-0.3,0.1-0.7,0.2-1,0.3c-0.1,0-0.2,0.1-0.2,0.2c-0.1,0.3-0.2,0.6-0.4,0.9
		c-0.1,0.1-0.1,0.2,0,0.3c0.2,0.3,0.3,0.6,0.5,0.9c0.1,0.2,0.1,0.4-0.1,0.6c-0.5,0.5-1.1,1.1-1.6,1.6c-0.2,0.2-0.3,0.2-0.6,0.1
		c-0.3-0.2-0.7-0.3-1-0.5c-0.1,0-0.2,0-0.3,0c-0.3,0.1-0.6,0.3-1,0.4c-0.1,0-0.1,0.1-0.2,0.2c-0.1,0.3-0.2,0.7-0.3,1
		c-0.1,0.3-0.2,0.4-0.5,0.4c-0.8,0-1.5,0-2.3,0c-0.3,0-0.4-0.1-0.5-0.4c-0.1-0.4-0.3-0.9-0.4-1.3c-0.1-0.3,0-0.5,0.2-0.6
		c0.2-0.1,0.4,0,0.5,0.3c0.1,0.3,0.2,0.6,0.3,1c0,0.1,0.1,0.1,0.2,0.1c0.5,0,1,0,1.6,0c0.1,0,0.2-0.1,0.2-0.1c0.1-0.3,0.2-0.6,0.3-1
		c0.1-0.2,0.2-0.3,0.4-0.4c0.5-0.2,0.9-0.4,1.3-0.6c0.2-0.1,0.3-0.1,0.5,0c0.3,0.2,0.6,0.3,0.9,0.5c0.1,0,0.2,0,0.2,0
		c0.4-0.4,0.7-0.7,1.1-1.1c0.1-0.1,0.1-0.1,0-0.3c-0.2-0.3-0.3-0.6-0.5-0.9c-0.1-0.2-0.1-0.3,0-0.5c0.2-0.4,0.4-0.9,0.5-1.3
		c0.1-0.2,0.2-0.3,0.4-0.4c0.3-0.1,0.6-0.2,1-0.3c0.1,0,0.1-0.1,0.1-0.2c0-0.5,0-1,0-1.6c0-0.1-0.1-0.2-0.2-0.2
		c-0.3-0.1-0.6-0.2-0.9-0.3c-0.2-0.1-0.3-0.2-0.4-0.4c-0.2-0.4-0.3-0.9-0.5-1.3c-0.1-0.2-0.1-0.3,0-0.5c0.2-0.3,0.3-0.6,0.5-0.9
		c0-0.1,0-0.2,0-0.2C41.5,8.9,41.1,8.5,40.6,8z"/>
</g>
</svg>
