<svg xmlns="http://www.w3.org/2000/svg" xmlns:xlink="http://www.w3.org/1999/xlink" width="70" zoomAndPan="magnify" viewBox="0 0 52.5 52.499999" height="70" preserveAspectRatio="xMidYMid meet" version="1.0"><defs><clipPath id="6cc0aa5316"><path d="M 0 1.640625 L 52.003906 1.640625 L 52.003906 47 L 0 47 Z M 0 1.640625 " clip-rule="nonzero"/></clipPath><clipPath id="9d60a75306"><path d="M 8 29 L 19 29 L 19 51.140625 L 8 51.140625 Z M 8 29 " clip-rule="nonzero"/></clipPath></defs><path fill="#595959" d="M 22.539062 31.625 C 22.539062 33.644531 24.140625 35.457031 26.230469 35.457031 C 28.195312 35.457031 29.835938 33.890625 29.917969 31.871094 C 30 29.8125 28.402344 28.121094 26.351562 28.039062 C 25.492188 28 24.714844 28.285156 24.097656 28.738281 L 18.15625 23.300781 C 17.828125 23.011719 17.296875 23.011719 17.007812 23.339844 C 16.722656 23.671875 16.722656 24.207031 17.050781 24.496094 L 22.992188 29.933594 C 22.746094 30.429688 22.582031 31.007812 22.539062 31.625 Z M 26.3125 29.6875 C 27.460938 29.730469 28.320312 30.675781 28.277344 31.832031 C 28.238281 32.984375 27.296875 33.851562 26.148438 33.808594 C 25 33.769531 24.140625 32.820312 24.179688 31.667969 C 24.222656 30.511719 25.164062 29.648438 26.3125 29.6875 Z M 26.3125 29.6875 " fill-opacity="1" fill-rule="nonzero"/><path fill="#595959" d="M 42.621094 23.382812 C 42.214844 23.628906 42.089844 24.125 42.335938 24.496094 C 42.539062 24.867188 43.074219 25.03125 43.441406 24.78125 L 45.449219 23.628906 C 45.738281 25.03125 45.902344 26.515625 45.902344 28 C 45.902344 28.453125 46.269531 28.824219 46.722656 28.824219 C 47.171875 28.824219 47.539062 28.453125 47.539062 28 C 47.539062 23.875 46.476562 20.042969 44.589844 16.746094 C 40.859375 10.152344 33.851562 5.78125 26.230469 5.78125 C 14.46875 5.78125 4.917969 15.757812 4.917969 28.039062 C 4.917969 28.492188 5.285156 28.863281 5.738281 28.863281 C 6.1875 28.863281 6.558594 28.492188 6.558594 28.039062 C 6.558594 26.636719 6.679688 25.238281 6.96875 23.917969 C 6.96875 23.917969 9.222656 25.238281 9.222656 25.238281 C 9.589844 25.441406 10.121094 25.320312 10.328125 24.949219 C 10.574219 24.535156 10.410156 24.042969 10.039062 23.835938 L 7.335938 22.269531 C 7.703125 20.992188 8.15625 19.753906 8.730469 18.601562 C 8.730469 18.601562 10.410156 20.289062 10.410156 20.289062 C 10.738281 20.621094 11.269531 20.621094 11.558594 20.289062 C 11.886719 19.960938 11.886719 19.464844 11.558594 19.136719 L 9.550781 17.117188 C 10.367188 15.796875 11.269531 14.5625 12.335938 13.449219 L 13.605469 15.675781 C 13.8125 16.046875 14.34375 16.210938 14.714844 15.960938 C 15.121094 15.714844 15.246094 15.21875 15 14.851562 L 13.523438 12.292969 C 15.039062 10.976562 16.722656 9.863281 18.566406 9.078125 C 18.566406 9.078125 19.261719 11.632812 19.261719 11.632812 C 19.386719 12.046875 19.835938 12.335938 20.246094 12.210938 C 20.695312 12.089844 20.941406 11.632812 20.820312 11.222656 L 20.082031 8.503906 C 21.761719 7.925781 23.484375 7.59375 25.328125 7.511719 L 25.328125 10.316406 C 25.328125 10.769531 25.695312 11.140625 26.148438 11.140625 C 26.597656 11.140625 26.96875 10.769531 26.96875 10.316406 L 26.96875 7.472656 C 28.8125 7.554688 30.574219 7.882812 32.253906 8.460938 L 31.433594 11.511719 C 31.3125 11.964844 31.558594 12.417969 32.007812 12.5 C 32.417969 12.625 32.910156 12.375 32.992188 11.921875 L 33.769531 9.078125 C 35.492188 9.820312 37.089844 10.851562 38.484375 12.046875 L 37.214844 14.4375 C 36.96875 14.851562 37.132812 15.34375 37.5 15.550781 C 37.867188 15.757812 38.402344 15.632812 38.605469 15.261719 L 39.796875 13.199219 C 40.902344 14.3125 41.886719 15.550781 42.703125 16.910156 L 40.859375 18.765625 C 40.53125 19.09375 40.53125 19.589844 40.859375 19.917969 C 41.1875 20.25 41.722656 20.25 42.007812 19.917969 L 43.523438 18.394531 C 44.097656 19.546875 44.589844 20.785156 44.960938 22.0625 Z M 42.621094 23.382812 " fill-opacity="1" fill-rule="nonzero"/><g clip-path="url(#6cc0aa5316)"><path fill="#595959" d="M 26.230469 1.660156 C 11.761719 1.660156 0 13.777344 0 28.65625 C 0 34.921875 2.132812 41.023438 6.023438 45.886719 C 6.1875 46.09375 6.433594 46.175781 6.679688 46.175781 L 8.15625 46.175781 L 7.171875 44.527344 L 7.089844 44.527344 C 3.566406 40.035156 1.640625 34.429688 1.640625 28.65625 C 1.640625 14.683594 12.664062 3.308594 26.230469 3.308594 C 39.796875 3.308594 50.820312 14.683594 50.820312 28.65625 C 50.820312 34.429688 48.894531 40.035156 45.410156 44.527344 L 19.917969 44.527344 L 18.933594 46.175781 L 45.820312 46.175781 C 46.066406 46.175781 46.3125 46.050781 46.476562 45.886719 C 50.367188 41.0625 52.5 34.964844 52.5 28.65625 C 52.460938 13.777344 40.695312 1.660156 26.230469 1.660156 Z M 26.230469 1.660156 " fill-opacity="1" fill-rule="nonzero"/></g><g clip-path="url(#9d60a75306)"><path fill="#595959" d="M 18.03125 42.054688 L 15.984375 42.054688 L 15.984375 31.335938 C 15.984375 30.429688 15.246094 29.6875 14.34375 29.6875 L 12.703125 29.6875 C 11.804688 29.6875 11.066406 30.429688 11.066406 31.335938 L 11.066406 42.054688 L 9.015625 42.054688 C 8.730469 42.054688 8.441406 42.21875 8.320312 42.464844 C 8.15625 42.710938 8.195312 43.042969 8.320312 43.289062 L 12.828125 50.710938 C 12.992188 50.957031 13.238281 51.121094 13.523438 51.121094 C 13.8125 51.121094 14.058594 50.957031 14.222656 50.710938 L 18.730469 43.289062 C 18.894531 43.042969 18.894531 42.710938 18.730469 42.464844 C 18.605469 42.21875 18.320312 42.054688 18.03125 42.054688 Z M 13.523438 48.730469 L 10.492188 43.703125 L 11.886719 43.703125 C 12.335938 43.703125 12.703125 43.332031 12.703125 42.878906 L 12.703125 31.335938 L 14.34375 31.335938 L 14.34375 42.878906 C 14.34375 43.332031 14.714844 43.703125 15.164062 43.703125 L 16.558594 43.703125 Z M 13.523438 48.730469 " fill-opacity="1" fill-rule="nonzero"/></g></svg>