<?xml version="1.0" encoding="utf-8"?>
<!-- Generator: Adobe Illustrator 24.3.0, SVG Export Plug-In . SVG Version: 6.00 Build 0)  -->
<svg version="1.1" id="Layer_1" xmlns="http://www.w3.org/2000/svg" xmlns:xlink="http://www.w3.org/1999/xlink" x="0px" y="0px"
	 viewBox="0 0 70 70" style="enable-background:new 0 0 70 70;" xml:space="preserve">
<style type="text/css">
	.st0{clip-path:url(#SVGID_2_);}
	.st1{fill:#595959;}
	.st2{fill:#595959;stroke:#595959;stroke-width:0.5;stroke-miterlimit:10;}
</style>
<g>
	<defs>
		<rect id="SVGID_1_" x="95.2" y="-15" width="69" height="67.9"/>
	</defs>
	<clipPath id="SVGID_2_">
		<use xlink:href="#SVGID_1_"  style="overflow:visible;"/>
	</clipPath>
	<g class="st0">
		<path class="st1" d="M156.8,32.9h4.2V31h-4.2V32.9z M156.8,35.9h4.2V34h-4.2V35.9z M162.5,22.5c-0.7-0.5-1.5-0.8-2.4-0.8H99.2
			c-0.9,0-1.8,0.3-2.4,0.8v-7.2c0-1.4,1.1-2.5,2.4-2.5h60.9c1.3,0,2.4,1.1,2.4,2.5V22.5z M162.5,38c0,1.4-1.1,2.5-2.4,2.5h-7.7v-0.8
			h2.5v-9.7h-50.4v9.7h2.5v0.8h-7.7c-1.3,0-2.4-1.1-2.4-2.5V25.8c0-1.4,1.1-2.5,2.4-2.5h60.9c1.3,0,2.4,1.1,2.4,2.5V38z M151.6,32.7
			h-43.8c-0.4,0-0.8,0.4-0.8,0.8V38H106v-6.5h47.2V38h-0.9v-4.5C152.4,33,152,32.7,151.6,32.7z M150.8,51.3h-42.2v-17h42.2V51.3z
			 M105.2,0.6h1.7v10.6h-1.7V0.6z M108.6-13.4h42.2v24.6h-42.2V-13.4z M152.4,0.6h1.7v10.6h-1.7V0.6z M160.1,11.2h-4.4V-0.2
			c0-0.4-0.4-0.8-0.8-0.8h-2.5v-13.2c0-0.4-0.4-0.8-0.8-0.8h-43.8c-0.4,0-0.8,0.4-0.8,0.8V-1h-2.5c-0.4,0-0.8,0.4-0.8,0.8v11.4h-4.4
			c-2.2,0-4.1,1.8-4.1,4.1V38c0,2.2,1.8,4.1,4.1,4.1h7.7v10c0,0.4,0.4,0.8,0.8,0.8h43.8c0.4,0,0.8-0.4,0.8-0.8v-10h7.7
			c2.2,0,4.1-1.8,4.1-4.1V15.3C164.2,13.1,162.3,11.2,160.1,11.2z M156.8,38.9h4.2V37h-4.2V38.9"/>
	</g>
</g>
<g>
	<path class="st1" d="M123.4,6.4c-0.4-0.4-0.8-0.8-1.2-1.1c-0.1,0.1-0.3,0.3-0.4,0.4c-0.3,0.3-0.7,0.7-1,1c-0.3,0.3-0.7,0.2-0.8-0.2
		c-0.7-2.2,1-4.4,3.3-4.2c0.1,0,0.2,0,0.2-0.1c0.9-0.9,1.8-1.8,2.7-2.7c0.1-0.1,0.1-0.2,0-0.3c-0.9-2.6,0.3-5.4,2.8-6.6
		c3.2-1.4,6.9,0.6,7.4,4c0.4,2.9-1.5,5.5-4.4,6c-0.9,0.2-1.9,0.1-2.8-0.3c-0.1-0.1-0.2,0-0.3,0.1c-0.8,0.8-1.7,1.7-2.5,2.5
		c-0.1,0.1-0.2,0.2-0.2,0.4c0,1.5-0.8,2.7-2.1,3.2c-0.7,0.2-1.4,0.3-2.1,0c-0.4-0.1-0.5-0.5-0.2-0.8c0.4-0.5,0.9-0.9,1.3-1.3
		C123.4,6.5,123.4,6.5,123.4,6.4z M120.7,5.6C120.7,5.6,120.8,5.7,120.7,5.6c0.1,0,0.1-0.1,0.2-0.1c0.3-0.3,0.7-0.7,1-1
		c0.2-0.2,0.5-0.2,0.7,0c0.5,0.5,1.1,1.1,1.6,1.6c0.2,0.2,0.2,0.5,0,0.7c-0.4,0.4-0.7,0.7-1.1,1.1c0,0-0.1,0.1-0.1,0.1
		c0.1,0,0.1,0,0.1,0c1.5,0,2.6-1.3,2.4-2.8c0-0.2,0-0.3,0.1-0.5c1.6-1.6,3.1-3.1,4.7-4.7c0.1-0.1,0.3-0.2,0.4-0.1
		c1,0.1,1.8-0.2,2.4-1.1c0.3-0.4,0.4-0.9,0.4-1.5c-0.1,0.1-0.1,0.1-0.2,0.2c-0.4,0.4-0.7,0.7-1.1,1.1c-0.2,0.2-0.4,0.2-0.7,0
		c-0.5-0.5-1.1-1.1-1.6-1.6c-0.2-0.2-0.2-0.4,0-0.7c0.3-0.4,0.7-0.7,1.1-1.1c0,0,0.1-0.1,0.1-0.2c-0.1,0-0.1,0-0.1,0
		c-1.4,0-2.6,1.3-2.4,2.7c0,0.2,0,0.4-0.2,0.6c-1.5,1.5-3.1,3.1-4.6,4.6c-0.1,0.1-0.3,0.2-0.5,0.2c-1.2-0.2-2.4,0.6-2.7,1.8
		C120.8,5.2,120.7,5.4,120.7,5.6z M129.8,1.8c1.4,0.6,3.8,0.3,5.1-1.6c1.3-1.8,1-4.3-0.7-5.9c-1.6-1.5-4.2-1.5-5.9-0.1
		c-0.9,0.8-1.4,1.7-1.6,2.9c-0.1,0.6,0,1.2,0.2,1.8c0.3-0.3,0.5-0.5,0.8-0.8c0.1-0.1,0.2-0.3,0.2-0.5c-0.1-2.2,2.1-3.9,4.2-3.2
		c0.4,0.1,0.5,0.5,0.2,0.8c-0.4,0.4-0.9,0.9-1.3,1.3c0,0-0.1,0.1-0.1,0.1c0.4,0.4,0.8,0.8,1.2,1.2c0,0,0.1-0.1,0.1-0.2
		c0.4-0.4,0.9-0.9,1.3-1.3c0.3-0.3,0.6-0.2,0.7,0.2c0.2,0.5,0.2,1,0.1,1.6c-0.3,1.7-1.7,2.8-3.4,2.7c-0.1,0-0.1,0-0.2,0
		C130.5,1.1,130.2,1.4,129.8,1.8z"/>
	<path class="st1" d="M135.8-8.2c-0.3,0.2-0.7,0.3-1,0.5c-0.2,0.1-0.4,0.1-0.6,0c-0.4-0.2-0.8-0.4-1.2-0.5c-0.2-0.1-0.3-0.2-0.4-0.4
		c-0.1-0.3-0.2-0.6-0.3-0.9c0-0.1-0.1-0.1-0.2-0.1c-0.5,0-1,0-1.6,0c-0.1,0-0.1,0-0.2,0.1c-0.1,0.3-0.2,0.6-0.3,1
		c-0.1,0.2-0.2,0.3-0.4,0.4c-0.4,0.2-0.9,0.3-1.3,0.5c-0.2,0.1-0.3,0.1-0.5,0c-0.3-0.2-0.6-0.3-0.9-0.5c-0.1,0-0.1,0-0.2,0
		c-0.4,0.4-0.7,0.8-1.1,1.1c-0.1,0.1-0.1,0.1,0,0.2c0.2,0.3,0.3,0.6,0.5,0.9c0.1,0.2,0.1,0.3,0,0.5c-0.2,0.4-0.4,0.9-0.6,1.3
		c-0.1,0.2-0.2,0.3-0.3,0.3c-0.3,0.1-0.7,0.2-1,0.3c-0.1,0-0.1,0.1-0.1,0.2c0,0.6,0,1.1,0,1.7c0.4,0.1,0.7,0.2,1.1,0.4
		c0.2,0.1,0.3,0.1,0.3,0.3c0.1,0.3-0.2,0.6-0.5,0.5c-0.5-0.2-1-0.3-1.5-0.5c-0.2-0.1-0.2-0.2-0.2-0.4c0-0.8,0-1.6,0-2.4
		c0-0.2,0.1-0.3,0.3-0.4c0.4-0.1,0.7-0.2,1.1-0.4c0.1,0,0.2-0.1,0.2-0.2c0.1-0.3,0.3-0.6,0.4-1c0-0.1,0-0.2,0-0.2
		c-0.2-0.3-0.3-0.7-0.5-1c-0.1-0.2-0.1-0.4,0.1-0.5c0.5-0.5,1.1-1.1,1.6-1.6c0.2-0.2,0.3-0.2,0.6-0.1c0.3,0.2,0.6,0.3,1,0.5
		c0.1,0.1,0.2,0.1,0.3,0c0.3-0.1,0.6-0.3,0.9-0.4c0.1,0,0.2-0.1,0.2-0.2c0.1-0.3,0.2-0.7,0.4-1c0.1-0.2,0.2-0.3,0.5-0.3
		c0.8,0,1.5,0,2.3,0c0.3,0,0.4,0.1,0.5,0.3c0.1,0.3,0.2,0.7,0.4,1c0,0.1,0.1,0.2,0.2,0.2c0.3,0.1,0.6,0.3,0.9,0.4c0.1,0,0.2,0,0.3,0
		c0.3-0.2,0.7-0.3,1-0.5c0.2-0.1,0.4-0.1,0.6,0.1c0.5,0.5,1.1,1.1,1.6,1.6c0.2,0.2,0.2,0.3,0.1,0.6c-0.2,0.3-0.3,0.6-0.5,1
		c-0.1,0.1-0.1,0.2,0,0.3c0.1,0.3,0.3,0.6,0.4,0.9c0,0.1,0.1,0.2,0.2,0.2c0.3,0.1,0.7,0.2,1,0.4c0.3,0.1,0.3,0.2,0.3,0.5
		c0,0.8,0,1.5,0,2.3c0,0.3-0.1,0.4-0.3,0.5c-0.3,0.1-0.7,0.2-1,0.3c-0.1,0-0.2,0.1-0.2,0.2c-0.1,0.3-0.2,0.6-0.4,0.9
		c-0.1,0.1-0.1,0.2,0,0.3c0.2,0.3,0.3,0.6,0.5,0.9c0.1,0.2,0.1,0.4-0.1,0.6c-0.5,0.5-1.1,1.1-1.6,1.6c-0.2,0.2-0.3,0.2-0.6,0.1
		c-0.3-0.2-0.7-0.3-1-0.5c-0.1,0-0.2,0-0.3,0c-0.3,0.1-0.6,0.3-1,0.4c-0.1,0-0.1,0.1-0.2,0.2c-0.1,0.3-0.2,0.7-0.3,1
		c-0.1,0.3-0.2,0.4-0.5,0.4c-0.8,0-1.5,0-2.3,0c-0.3,0-0.4-0.1-0.5-0.4c-0.1-0.4-0.3-0.9-0.4-1.3c-0.1-0.3,0-0.5,0.2-0.6
		c0.2-0.1,0.4,0,0.5,0.3c0.1,0.3,0.2,0.6,0.3,1c0,0.1,0.1,0.1,0.2,0.1c0.5,0,1,0,1.6,0c0.1,0,0.2-0.1,0.2-0.1c0.1-0.3,0.2-0.6,0.3-1
		c0.1-0.2,0.2-0.3,0.4-0.4c0.5-0.2,0.9-0.4,1.3-0.6c0.2-0.1,0.3-0.1,0.5,0c0.3,0.2,0.6,0.3,0.9,0.5c0.1,0,0.2,0,0.2,0
		c0.4-0.4,0.7-0.7,1.1-1.1c0.1-0.1,0.1-0.1,0-0.3c-0.2-0.3-0.3-0.6-0.5-0.9c-0.1-0.2-0.1-0.3,0-0.5c0.2-0.4,0.4-0.9,0.5-1.3
		c0.1-0.2,0.2-0.3,0.4-0.4c0.3-0.1,0.6-0.2,1-0.3c0.1,0,0.1-0.1,0.1-0.2c0-0.5,0-1,0-1.6c0-0.1-0.1-0.2-0.2-0.2
		c-0.3-0.1-0.6-0.2-0.9-0.3c-0.2-0.1-0.3-0.2-0.4-0.4c-0.2-0.4-0.3-0.9-0.5-1.3c-0.1-0.2-0.1-0.3,0-0.5c0.2-0.3,0.3-0.6,0.5-0.9
		c0-0.1,0-0.2,0-0.2C136.6-7.4,136.2-7.8,135.8-8.2z"/>
</g>
<g>
	<path class="st2" d="M69.6,51c-0.3,0.1-0.6,0.3-0.9,0.3c-4.7,0-9.5,0-14.2,0c-0.3,0-0.6-0.1-0.7-0.3c-0.1-0.2,0-0.6,0.2-0.8
		c0.6-0.9,1.2-1.8,1.7-2.7c0-0.1-0.1-0.1-0.1-0.2c-0.7,0.1-1.4,0.1-2.1,0.3c-2.4,0.6-4,2.8-4.2,5.2c0,0.1,0,0.3,0,0.3
		c-0.2,0.2-0.4,0.4-0.6,0.6c-0.2-0.2-0.5-0.5-0.5-0.7c0.1-0.8,0.2-1.6,0.4-2.3c1.2-3.2,4.5-5.1,7.8-4.5c0.9,0.2,1,0.5,0.6,1.3
		c-0.5,0.8-1.1,1.6-1.7,2.5c4.3,0,8.5,0,12.9,0c-1.7-3.9-3.3-7.8-5.1-11.8c-0.4,0.6-0.7,1.1-1.1,1.6c-1,1.6-1,1.6-2.8,1
		c-7.7-2.5-15.7,2.3-17,10.3c-0.1,0.6-0.1,1.1-0.1,1.7c0,0.4,0,0.9-0.6,0.9C41,53.8,41,53.4,41,53c0.1-3.6,1.3-6.8,3.8-9.4
		c4.2-4.3,9.3-5.5,15-3.7c0.5,0.2,0.8,0.1,1.1-0.4c0.5-0.8,1-1.6,1.6-2.4c0.2-0.2,0.5-0.6,0.7-0.5c0.3,0.1,0.5,0.4,0.7,0.7
		c1.8,4.2,3.6,8.4,5.4,12.6c0.1,0.2,0.2,0.4,0.3,0.6C69.6,50.7,69.6,50.8,69.6,51z"/>
	<path class="st2" d="M51.9,21.9c1,0,1.9,0,2.8,0c4.8,0,8.1,3.3,8.1,8.1c0,1.6,0,3.2,0,4.8c0,0.4-0.1,0.8-0.6,0.8
		c-0.5,0-0.6-0.4-0.6-0.8c0-1.6,0-3.3,0-4.9c0-4.1-2.8-6.9-6.8-6.9c-13.6,0-27.2,0-40.9,0c-4,0-6.8,2.9-6.8,6.9c0,2.5,0,5,0,7.6
		c0.9,0,1.8,0,2.7-0.2c1-0.2,1.7-1.1,1.8-2.2c0.2-1.8,1-2.6,2.8-2.6c0.8,0,1.6,0,2.5,0c0-0.9,0-1.7,0-2.5c0-1.5,0.8-2.2,2.2-2.2
		c2.1,0,4.2,0,6.3,0c1.6,0,2.3,0.8,2.3,2.4c0,9.4,0,18.8,0,28.1c0,0.3,0,0.6,0,0.9c4.7,0,9.4,0,14.1,0c-0.4-1-0.8-2-1.3-3
		c-0.4-0.9-0.2-1.1,0.7-1.1c4.7,0,9.4,0,14.1,0c0.3,0,0.7,0.1,0.8,0.3c0.1,0.2,0,0.6-0.2,0.9c-0.5,0.9-1.1,1.7-1.8,2.8
		c0.7-0.1,1.3,0,1.9-0.2c2.6-0.6,4.3-2.6,4.6-5.2c0.1-0.4-0.1-1.1,0.6-1c0.7,0.1,0.5,0.7,0.5,1.1c-0.4,4.1-4.2,7-8.3,6.3
		c-0.9-0.2-1-0.5-0.5-1.3c0.5-0.8,1.1-1.6,1.6-2.5c-4.3,0-8.5,0-12.8,0c1.7,3.9,3.4,7.8,5.1,11.8c0.6-0.9,1.2-1.8,1.7-2.6
		c0.3-0.5,0.6-0.6,1.2-0.4c7.9,3.2,16.2-1.3,17.9-9.6c0.1-0.7,0.2-1.4,0.2-2.1c0-0.4,0.1-0.9,0.6-0.9c0.5,0,0.5,0.5,0.5,0.9
		c0,6.7-5.3,12.7-12,13.7c-2.4,0.3-4.8,0.2-7-0.7c-0.4-0.1-0.6-0.1-0.8,0.3c-0.5,0.9-1.1,1.7-1.6,2.5c-0.2,0.3-0.5,0.6-0.8,0.6
		c-0.2,0-0.5-0.4-0.7-0.7c-1.2-2.7-2.3-5.4-3.5-8.1c-0.2-0.5-0.4-0.6-0.9-0.6c-4.4,0-8.8,0-13.2,0c-0.2,0-0.4,0-0.7,0
		c0,0.2-0.1,0.4-0.1,0.6c0,0.8,0,1.7,0,2.5c0,1.6-1,2.6-2.6,2.6c-3.7,0-7.4,0-11.1,0c-3.9,0-7.8,0-11.7,0c-1.7,0-2.7-1-2.7-2.7
		c0-7.8,0-15.6,0-23.4c0-1.6,1-2.6,2.6-2.6c1.2,0,2.3,0,3.5,0c0,0,0.1,0,0.2-0.1c0-0.2,0-0.5,0-0.8c0-2.4-0.1-4.8,0-7.2
		c0.2-4.4,3.4-7.5,7.8-7.6c1,0,2,0,3.1,0c0-0.3,0-0.6,0-0.9c0-6.3,0-12.6,0-18.9c0-1,0.1-1.1,1.1-1.1c7.9,0,15.7,0,23.6,0
		c0.5,0,0.8,0.1,1.2,0.5c2.8,2.8,5.6,5.6,8.4,8.4c0.4,0.4,0.6,0.8,0.6,1.4c0,3.2,0,6.5,0,9.7C51.9,21.3,51.9,21.5,51.9,21.9z
		 M50.7,21.9c0-3.6,0-7.1,0-10.6c-2.7,0-5.4,0-8.1,0c-0.9,0-1-0.1-1-1c0-2.5,0-4.9,0-7.4c0-0.2,0-0.5,0-0.7c-7.8,0-15.6,0-23.3,0
		c0,6.6,0,13.1,0,19.7C29.2,21.9,39.9,21.9,50.7,21.9z M26.8,33.8c-0.1-0.1-0.2-0.1-0.2-0.1c-4.1,0-8.3,0-12.4,0
		c-0.8,0-1.3,0.5-1.3,1.4c-0.2,2.2-1.6,3.5-3.9,3.5c-2.1,0-4.2,0-6.3,0c-1.3,0-1.8,0.4-1.8,1.8C1,48,1,55.6,1,63.2
		C1,64.6,1.4,65,2.8,65c7.4,0,14.8,0,22.3,0c1.4,0,1.8-0.4,1.8-1.8c0-9.6,0-19.1,0-28.7C26.8,34.3,26.8,34,26.8,33.8z M26.8,32.6
		c0-1,0-1.9,0-2.8c0-0.5-0.4-0.7-0.8-0.7c-2.3,0-4.6,0-6.9,0c-0.5,0-0.8,0.3-0.8,0.7c0,0.9,0,1.8,0,2.8C21.2,32.6,24,32.6,26.8,32.6
		z M49.8,10.1c-2.3-2.3-4.6-4.6-6.9-6.9c0,2.3,0,4.6,0,6.9C45.2,10.1,47.5,10.1,49.8,10.1z"/>
	<path class="st2" d="M39.9,34.8c0,1.7-1.1,2.9-2.7,2.8c-1.5,0-2.7-1.2-2.5-2.9c0.1-1,0.4-2,0.8-3c0.3-0.9,0.8-1.7,1.2-2.6
		c0.3-0.5,0.8-0.6,1-0.1c0.9,1.7,1.8,3.3,2.1,5.2C39.9,34.5,39.9,34.7,39.9,34.8z M37.2,30.7c-0.4,0.9-0.8,1.8-1.1,2.8
		c-0.2,0.5-0.2,1.1-0.2,1.7c0,0.7,0.4,1.1,1.1,1.3c0.6,0.2,1.2,0,1.5-0.5c0.2-0.4,0.4-0.9,0.3-1.3C38.6,33.2,38,32,37.2,30.7z"/>
	<path class="st2" d="M48,34.8c0,1.8-1.1,2.9-2.6,2.9c-1.6,0-2.7-1.2-2.6-2.8c0.1-1.1,0.5-2.1,0.9-3.2c0.3-0.8,0.8-1.6,1.2-2.4
		c0.3-0.5,0.8-0.6,1-0.1c0.9,1.6,1.7,3.2,2.1,5C48,34.4,47.9,34.6,48,34.8z M45.5,30.7c-0.1,0-0.2,0-0.2,0c-0.1,0.1-0.1,0.2-0.2,0.3
		c-0.3,0.7-0.7,1.5-1,2.2c-0.2,0.6-0.3,1.2-0.3,1.9c0,1.2,1.2,1.8,2.2,1.2c0.7-0.4,0.9-1.1,0.7-1.8C46.5,33.2,46,32,45.5,30.7z"/>
	<path class="st2" d="M56,34.8c0,1.7-1,2.8-2.6,2.9c-1.6,0-2.8-1.2-2.6-2.9c0.1-1.1,0.5-2.2,0.9-3.2c0.3-0.8,0.7-1.6,1.1-2.3
		c0.3-0.5,0.8-0.6,1-0.1c0.9,1.7,1.9,3.4,2.2,5.4C56,34.6,56,34.7,56,34.8z M53.6,30.7c-0.1,0-0.2,0-0.3,0c-0.4,1-0.9,2-1.2,3.1
		c-0.2,0.6-0.1,1.2,0,1.8c0.1,0.6,0.7,0.9,1.3,0.9c0.6,0,1.2-0.3,1.4-0.9c0.1-0.4,0.2-0.9,0.1-1.3C54.5,33.1,54,31.9,53.6,30.7z"/>
	<path class="st2" d="M31.6,16.7c-1.5,0-3.1,0-4.6,0c-0.4,0-1,0-0.9-0.6c0-0.6,0.5-0.6,0.9-0.6c3.1,0,6.3,0,9.4,0
		c0.3,0,0.7,0.1,0.8,0.3c0.3,0.4,0,0.8-0.7,0.8C34.9,16.7,33.2,16.7,31.6,16.7z"/>
	<path class="st2" d="M31.6,9.4c-1.6,0-3.2,0-4.8,0c-0.4,0-0.8,0-0.9-0.5c0-0.6,0.4-0.6,0.9-0.6c3.2,0,6.3,0,9.5,0
		c0.4,0,0.8,0.1,0.8,0.6c0,0.5-0.4,0.6-0.8,0.6C34.8,9.4,33.2,9.4,31.6,9.4z"/>
	<path class="st2" d="M31.6,13.1c-1.6,0-3.1,0-4.7,0c-0.4,0-0.8,0-0.9-0.5c0-0.6,0.4-0.6,0.9-0.6c3.2,0,6.3,0,9.5,0
		c0.3,0,0.7,0.3,0.8,0.5c0.1,0.5-0.3,0.6-0.7,0.6C34.8,13.1,33.2,13.1,31.6,13.1z"/>
	<path class="st2" d="M23.3,49.6c0,2.6,0,5.3,0,7.9c0,1.8-1.1,2.9-2.9,2.9c-4,0-8,0-12,0c-1.8,0-2.9-1.1-2.9-2.9c0-2.4,0-4.8,0-7.1
		c0-0.9,0.3-1.6,0.9-2.2c2.7-2.8,5.5-5.6,8.2-8.5c0.7-0.7,1.5-1,2.4-1c1.2,0,2.3,0,3.5,0c1.8,0,2.9,1.1,2.9,2.9
		C23.3,44.2,23.3,46.9,23.3,49.6z M22.2,49.5c0-2.7,0-5.3,0-8c0-1.2-0.6-1.8-1.8-1.8c-1.2,0-2.4,0-3.6,0c-0.6,0-1.1,0.2-1.5,0.6
		c-2.7,2.8-5.5,5.6-8.1,8.5c-0.3,0.4-0.6,1-0.6,1.5c-0.1,2.3,0,4.6,0,6.9c0,1.3,0.6,1.9,1.9,1.9c3.9,0,7.9,0,11.8,0
		c1.4,0,2-0.6,2-1.9C22.2,54.8,22.2,52.1,22.2,49.5z"/>
	<path class="st2" d="M12.9,51.5c0.2-0.5,0.5-1.5,0.8-2.5c0.3-0.9,0.8-1.7,1.2-2.5c0.3-0.5,0.8-0.6,1.1-0.1c0.9,1.7,1.9,3.4,2.1,5.4
		c0.2,2.2-1.6,3.7-3.6,3C13.5,54.4,12.9,53.4,12.9,51.5z M15.7,48c-0.1,0-0.2,0-0.3,0c-0.4,1.3-0.9,2.6-1.3,3.9
		c-0.1,0.3,0,0.7,0.1,1c0.2,0.6,0.7,1,1.4,1c0.6,0,1.2-0.3,1.3-0.9c0.1-0.5,0.2-1.1,0-1.7C16.6,50.2,16.1,49.1,15.7,48z"/>
</g>
</svg>
