<svg xmlns="http://www.w3.org/2000/svg" xmlns:xlink="http://www.w3.org/1999/xlink" width="180" zoomAndPan="magnify" viewBox="0 0 135 31.5" height="42" preserveAspectRatio="xMidYMid meet" version="1.0"><defs><g/><clipPath id="a4190a91c2"><path d="M 1.949219 0 L 28.925781 0 L 28.925781 30.863281 L 1.949219 30.863281 Z M 1.949219 0 " clip-rule="nonzero"/></clipPath><clipPath id="b5e46076d9"><path d="M 1.054688 11 L 8 11 L 8 18 L 1.054688 18 Z M 1.054688 11 " clip-rule="nonzero"/></clipPath></defs><g clip-path="url(#a4190a91c2)"><path fill="#333b66" d="M 22.203125 2.378906 C 18.902344 2.316406 16.332031 0.601562 15.453125 0 C 14.574219 0.601562 12 2.316406 8.699219 2.378906 C 5.078125 2.464844 2.804688 1.585938 1.949219 1.007812 L 1.949219 10.609375 L 3.40625 10.609375 L 3.40625 3.195312 C 4.972656 3.644531 6.601562 3.859375 8.230469 3.839844 L 8.742188 3.839844 C 10.992188 3.773438 13.289062 3.046875 15.453125 1.714844 C 17.617188 3.046875 19.910156 3.773438 22.160156 3.816406 L 22.675781 3.816406 C 24.304688 3.839844 25.933594 3.625 27.496094 3.171875 L 27.496094 10.589844 L 28.953125 10.589844 L 28.953125 1.007812 C 28.097656 1.585938 25.824219 2.464844 22.203125 2.378906 Z M 23.917969 22.957031 C 21.644531 26.085938 18.644531 28.335938 15.453125 29.363281 C 12.238281 28.359375 9.257812 26.085938 6.984375 22.976562 C 6.363281 22.121094 5.808594 21.21875 5.335938 20.277344 L 3.707031 20.277344 C 5.976562 25.144531 10.285156 29.40625 15.453125 30.867188 C 19.308594 29.773438 22.675781 27.113281 25.097656 23.8125 C 25.910156 22.699219 26.617188 21.5 27.199219 20.253906 L 25.589844 20.253906 C 25.097656 21.199219 24.539062 22.097656 23.917969 22.957031 Z M 23.917969 22.957031 " fill-opacity="1" fill-rule="nonzero"/></g><g clip-path="url(#b5e46076d9)"><g fill="#333b66" fill-opacity="1"><g transform="translate(1.054687, 17.425441)"><g><path d="M 6 0 L 4.703125 0 L 4.21875 -1.4375 L 1.828125 -1.4375 L 1.359375 0 L 0.09375 0 L 2.25 -6.25 L 3.84375 -6.25 Z M 2.96875 -4.9375 L 2.171875 -2.484375 L 3.890625 -2.484375 L 3.078125 -4.9375 Z M 2.96875 -4.9375 "/></g></g></g></g><g fill="#333b66" fill-opacity="1"><g transform="translate(7.139675, 17.425441)"><g><path d="M 0.671875 0 L 0.671875 -4.71875 L 1.8125 -4.71875 L 1.8125 -4.015625 L 1.90625 -4 C 2.195312 -4.53125 2.671875 -4.796875 3.328125 -4.796875 C 3.878906 -4.796875 4.28125 -4.644531 4.53125 -4.34375 C 4.78125 -4.050781 4.90625 -3.625 4.90625 -3.0625 L 4.90625 0 L 3.734375 0 L 3.734375 -2.921875 C 3.734375 -3.234375 3.671875 -3.457031 3.546875 -3.59375 C 3.421875 -3.726562 3.21875 -3.796875 2.9375 -3.796875 C 2.601562 -3.796875 2.335938 -3.6875 2.140625 -3.46875 C 1.953125 -3.25 1.859375 -2.90625 1.859375 -2.4375 L 1.859375 0 Z M 0.671875 0 "/></g></g></g><g fill="#333b66" fill-opacity="1"><g transform="translate(12.656729, 17.425441)"><g><path d="M 1.84375 0.09375 C 1.539062 0.09375 1.273438 0.0351562 1.046875 -0.078125 C 0.828125 -0.191406 0.65625 -0.351562 0.53125 -0.5625 C 0.414062 -0.78125 0.359375 -1.039062 0.359375 -1.34375 C 0.359375 -1.625 0.414062 -1.859375 0.53125 -2.046875 C 0.65625 -2.234375 0.84375 -2.382812 1.09375 -2.5 C 1.34375 -2.625 1.671875 -2.722656 2.078125 -2.796875 C 2.359375 -2.835938 2.570312 -2.882812 2.71875 -2.9375 C 2.863281 -2.988281 2.960938 -3.046875 3.015625 -3.109375 C 3.066406 -3.179688 3.09375 -3.273438 3.09375 -3.390625 C 3.09375 -3.535156 3.039062 -3.644531 2.9375 -3.71875 C 2.832031 -3.800781 2.65625 -3.84375 2.40625 -3.84375 C 2.144531 -3.84375 1.894531 -3.785156 1.65625 -3.671875 C 1.425781 -3.554688 1.222656 -3.40625 1.046875 -3.21875 L 0.96875 -3.21875 L 0.46875 -3.953125 C 0.707031 -4.222656 1 -4.429688 1.34375 -4.578125 C 1.6875 -4.722656 2.0625 -4.796875 2.46875 -4.796875 C 3.09375 -4.796875 3.546875 -4.660156 3.828125 -4.390625 C 4.109375 -4.128906 4.25 -3.757812 4.25 -3.28125 L 4.25 -1.234375 C 4.25 -1.023438 4.335938 -0.921875 4.515625 -0.921875 C 4.585938 -0.921875 4.660156 -0.929688 4.734375 -0.953125 L 4.796875 -0.9375 L 4.875 -0.109375 C 4.8125 -0.0664062 4.71875 -0.03125 4.59375 0 C 4.476562 0.0195312 4.351562 0.03125 4.21875 0.03125 C 3.9375 0.03125 3.710938 -0.0195312 3.546875 -0.125 C 3.390625 -0.238281 3.28125 -0.410156 3.21875 -0.640625 L 3.125 -0.640625 C 2.894531 -0.148438 2.46875 0.09375 1.84375 0.09375 Z M 2.21875 -0.796875 C 2.488281 -0.796875 2.703125 -0.882812 2.859375 -1.0625 C 3.023438 -1.25 3.109375 -1.507812 3.109375 -1.84375 L 3.109375 -2.3125 L 3.03125 -2.328125 C 2.957031 -2.273438 2.863281 -2.226562 2.75 -2.1875 C 2.632812 -2.144531 2.46875 -2.109375 2.25 -2.078125 C 2 -2.035156 1.816406 -1.960938 1.703125 -1.859375 C 1.585938 -1.753906 1.53125 -1.609375 1.53125 -1.421875 C 1.53125 -1.210938 1.585938 -1.054688 1.703125 -0.953125 C 1.828125 -0.847656 2 -0.796875 2.21875 -0.796875 Z M 2.21875 -0.796875 "/></g></g></g><g fill="#333b66" fill-opacity="1"><g transform="translate(17.622933, 17.425441)"><g><path d="M 3.296875 0.09375 C 2.691406 0.09375 2.242188 -0.128906 1.953125 -0.578125 L 1.859375 -0.5625 L 1.859375 0 L 0.671875 0 L 0.671875 -6.609375 L 1.859375 -6.609375 L 1.859375 -4.15625 L 1.953125 -4.140625 C 2.117188 -4.367188 2.3125 -4.535156 2.53125 -4.640625 C 2.75 -4.742188 3.007812 -4.796875 3.3125 -4.796875 C 3.695312 -4.796875 4.03125 -4.707031 4.3125 -4.53125 C 4.601562 -4.351562 4.828125 -4.082031 4.984375 -3.71875 C 5.140625 -3.351562 5.21875 -2.898438 5.21875 -2.359375 C 5.21875 -1.816406 5.132812 -1.363281 4.96875 -1 C 4.8125 -0.632812 4.585938 -0.359375 4.296875 -0.171875 C 4.003906 0.00390625 3.671875 0.09375 3.296875 0.09375 Z M 2.9375 -0.921875 C 3.28125 -0.921875 3.539062 -1.035156 3.71875 -1.265625 C 3.90625 -1.492188 4 -1.859375 4 -2.359375 C 4 -2.859375 3.90625 -3.222656 3.71875 -3.453125 C 3.539062 -3.679688 3.28125 -3.796875 2.9375 -3.796875 C 2.601562 -3.796875 2.335938 -3.675781 2.140625 -3.4375 C 1.941406 -3.195312 1.84375 -2.835938 1.84375 -2.359375 C 1.84375 -1.867188 1.941406 -1.503906 2.140625 -1.265625 C 2.335938 -1.035156 2.601562 -0.921875 2.9375 -0.921875 Z M 2.9375 -0.921875 "/></g></g></g><g fill="#333b66" fill-opacity="1"><g transform="translate(23.263823, 17.425441)"><g><path d="M 1.046875 2 C 0.835938 2 0.648438 1.984375 0.484375 1.953125 C 0.328125 1.921875 0.195312 1.878906 0.09375 1.828125 L 0.28125 0.875 L 0.359375 0.84375 C 0.429688 0.882812 0.519531 0.914062 0.625 0.9375 C 0.726562 0.957031 0.835938 0.96875 0.953125 0.96875 C 1.140625 0.96875 1.296875 0.941406 1.421875 0.890625 C 1.546875 0.847656 1.648438 0.765625 1.734375 0.640625 C 1.828125 0.523438 1.910156 0.367188 1.984375 0.171875 L 0.109375 -4.71875 L 1.34375 -4.71875 L 2.515625 -1.4375 L 2.609375 -1.4375 L 3.75 -4.71875 L 4.953125 -4.71875 L 3.0625 0.296875 C 2.914062 0.703125 2.75 1.023438 2.5625 1.265625 C 2.382812 1.515625 2.171875 1.695312 1.921875 1.8125 C 1.679688 1.9375 1.390625 2 1.046875 2 Z M 1.046875 2 "/></g></g></g><g fill="#333b66" fill-opacity="1"><g transform="translate(28.319699, 17.425441)"><g><path d="M 3.25 -1.125 L 3.5625 -0.25 C 3.425781 -0.144531 3.257812 -0.0625 3.0625 0 C 2.875 0.0625 2.660156 0.09375 2.421875 0.09375 C 1.910156 0.09375 1.519531 -0.046875 1.25 -0.328125 C 0.988281 -0.609375 0.859375 -1.007812 0.859375 -1.53125 L 0.859375 -3.78125 L 0.140625 -3.78125 L 0.140625 -4.71875 L 0.859375 -4.71875 L 0.859375 -5.640625 L 2.046875 -5.828125 L 2.046875 -4.71875 L 3.375 -4.71875 L 3.375 -3.78125 L 2.046875 -3.78125 L 2.046875 -1.625 C 2.046875 -1.382812 2.09375 -1.210938 2.1875 -1.109375 C 2.28125 -1.003906 2.421875 -0.953125 2.609375 -0.953125 C 2.816406 -0.953125 3 -1.007812 3.15625 -1.125 Z M 3.25 -1.125 "/></g></g></g><g fill="#333b66" fill-opacity="1"><g transform="translate(40.938373, 11.24579)"><g><path d="M 3.703125 -6.734375 L 2.40625 -3.125 L 5.0625 -3.125 L 3.75 -6.734375 Z M 1.28125 0 L 0.140625 0 L 3.15625 -8 L 4.3125 -8 L 7.328125 0 L 6.1875 0 L 5.421875 -2.171875 L 2.0625 -2.171875 Z M 1.28125 0 "/></g></g></g><g fill="#333b66" fill-opacity="1"><g transform="translate(48.399271, 11.24579)"><g><path d="M 1.828125 0 L 0.796875 0 L 0.796875 -8 L 2.0625 -8 L 5.9375 -1.78125 L 5.984375 -1.78125 L 5.9375 -3.3125 L 5.9375 -8 L 6.96875 -8 L 6.96875 0 L 5.90625 0 L 1.828125 -6.53125 L 1.78125 -6.53125 L 1.828125 -4.984375 Z M 1.828125 0 "/></g></g></g><g fill="#333b66" fill-opacity="1"><g transform="translate(56.172905, 11.24579)"><g><path d="M 3.703125 -6.734375 L 2.40625 -3.125 L 5.0625 -3.125 L 3.75 -6.734375 Z M 1.28125 0 L 0.140625 0 L 3.15625 -8 L 4.3125 -8 L 7.328125 0 L 6.1875 0 L 5.421875 -2.171875 L 2.0625 -2.171875 Z M 1.28125 0 "/></g></g></g><g fill="#333b66" fill-opacity="1"><g transform="translate(63.633803, 11.24579)"><g><path d="M 0.796875 0 L 0.796875 -8 L 3.703125 -8 C 4.328125 -8 4.867188 -7.789062 5.328125 -7.375 C 5.785156 -6.96875 6.015625 -6.453125 6.015625 -5.828125 C 6.015625 -5.035156 5.648438 -4.476562 4.921875 -4.15625 L 4.921875 -4.109375 C 5.335938 -3.972656 5.664062 -3.738281 5.90625 -3.40625 C 6.15625 -3.082031 6.28125 -2.707031 6.28125 -2.28125 C 6.28125 -1.625 6.039062 -1.078125 5.5625 -0.640625 C 5.101562 -0.210938 4.535156 0 3.859375 0 Z M 1.828125 -7.015625 L 1.828125 -4.5625 L 3.703125 -4.5625 C 4.066406 -4.5625 4.367188 -4.6875 4.609375 -4.9375 C 4.859375 -5.1875 4.984375 -5.472656 4.984375 -5.796875 C 4.984375 -6.109375 4.863281 -6.390625 4.625 -6.640625 C 4.382812 -6.890625 4.09375 -7.015625 3.75 -7.015625 Z M 1.828125 -3.609375 L 1.828125 -0.984375 L 3.90625 -0.984375 C 4.269531 -0.984375 4.582031 -1.113281 4.84375 -1.375 C 5.101562 -1.632812 5.234375 -1.941406 5.234375 -2.296875 C 5.234375 -2.648438 5.101562 -2.957031 4.84375 -3.21875 C 4.582031 -3.476562 4.253906 -3.609375 3.859375 -3.609375 Z M 1.828125 -3.609375 "/></g></g></g><g fill="#333b66" fill-opacity="1"><g transform="translate(70.268195, 11.24579)"><g><path d="M 3.859375 -3.71875 L 3.859375 0 L 2.828125 0 L 2.828125 -3.71875 L 0.140625 -8 L 1.34375 -8 L 3.3125 -4.75 L 3.359375 -4.75 L 5.296875 -8 L 6.5 -8 Z M 3.859375 -3.71875 "/></g></g></g><g fill="#333b66" fill-opacity="1"><g transform="translate(76.902588, 11.24579)"><g><path d="M 3.53125 -7.015625 L 3.53125 0 L 2.5 0 L 2.5 -7.015625 L 0.265625 -7.015625 L 0.265625 -8 L 5.765625 -8 L 5.765625 -7.015625 Z M 3.53125 -7.015625 "/></g></g></g><g fill="#333b66" fill-opacity="1"><g transform="translate(40.938373, 26.88242)"><g><path d="M 0.796875 -8 L 3.515625 -8 C 4.140625 -8 4.707031 -7.898438 5.21875 -7.703125 C 5.726562 -7.515625 6.160156 -7.242188 6.515625 -6.890625 C 6.867188 -6.535156 7.140625 -6.109375 7.328125 -5.609375 C 7.523438 -5.117188 7.625 -4.582031 7.625 -4 C 7.625 -3.40625 7.523438 -2.859375 7.328125 -2.359375 C 7.140625 -1.867188 6.867188 -1.445312 6.515625 -1.09375 C 6.160156 -0.75 5.726562 -0.476562 5.21875 -0.28125 C 4.707031 -0.09375 4.140625 0 3.515625 0 L 0.796875 0 Z M 3.4375 -1.4375 C 3.875 -1.4375 4.257812 -1.492188 4.59375 -1.609375 C 4.9375 -1.734375 5.21875 -1.90625 5.4375 -2.125 C 5.664062 -2.351562 5.832031 -2.625 5.9375 -2.9375 C 6.050781 -3.257812 6.109375 -3.613281 6.109375 -4 C 6.109375 -4.382812 6.050781 -4.734375 5.9375 -5.046875 C 5.832031 -5.367188 5.664062 -5.640625 5.4375 -5.859375 C 5.21875 -6.085938 4.9375 -6.257812 4.59375 -6.375 C 4.257812 -6.5 3.875 -6.5625 3.4375 -6.5625 L 2.3125 -6.5625 L 2.3125 -1.4375 Z M 3.4375 -1.4375 "/></g></g></g><g fill="#333b66" fill-opacity="1"><g transform="translate(48.968893, 26.88242)"><g><path d="M 0.796875 -8 L 3.71875 -8 C 4.125 -8 4.488281 -7.9375 4.8125 -7.8125 C 5.144531 -7.6875 5.425781 -7.507812 5.65625 -7.28125 C 5.894531 -7.0625 6.078125 -6.796875 6.203125 -6.484375 C 6.328125 -6.171875 6.390625 -5.832031 6.390625 -5.46875 C 6.390625 -5.207031 6.34375 -4.957031 6.25 -4.71875 C 6.164062 -4.488281 6.046875 -4.273438 5.890625 -4.078125 C 5.734375 -3.890625 5.550781 -3.722656 5.34375 -3.578125 C 5.132812 -3.429688 4.914062 -3.316406 4.6875 -3.234375 L 4.671875 -3.15625 L 6.8125 -0.09375 L 6.8125 0 L 5.078125 0 L 3.015625 -3 L 2.3125 -3 L 2.3125 0 L 0.796875 0 Z M 3.703125 -4.390625 C 4.046875 -4.390625 4.328125 -4.492188 4.546875 -4.703125 C 4.765625 -4.910156 4.875 -5.175781 4.875 -5.5 C 4.875 -5.632812 4.847656 -5.769531 4.796875 -5.90625 C 4.753906 -6.039062 4.6875 -6.160156 4.59375 -6.265625 C 4.5 -6.367188 4.378906 -6.453125 4.234375 -6.515625 C 4.085938 -6.578125 3.921875 -6.609375 3.734375 -6.609375 L 2.3125 -6.609375 L 2.3125 -4.390625 Z M 3.703125 -4.390625 "/></g></g></g><g fill="#333b66" fill-opacity="1"><g transform="translate(55.893679, 26.88242)"><g><path d="M 0.796875 -8 L 2.3125 -8 L 2.3125 0 L 0.796875 0 Z M 0.796875 -8 "/></g></g></g><g fill="#333b66" fill-opacity="1"><g transform="translate(59.009833, 26.88242)"><g><path d="M 0.140625 -8 L 1.765625 -8 L 3.421875 -3.1875 L 3.703125 -2.15625 L 3.796875 -2.15625 L 4.109375 -3.1875 L 5.828125 -8 L 7.46875 -8 L 4.546875 0 L 2.953125 0 Z M 0.140625 -8 "/></g></g></g><g fill="#333b66" fill-opacity="1"><g transform="translate(66.604762, 26.88242)"><g><path d="M 2.3125 -6.5625 L 2.3125 -4.71875 L 5.515625 -4.71875 L 5.515625 -3.28125 L 2.3125 -3.28125 L 2.3125 -1.4375 L 5.875 -1.4375 L 5.875 0 L 0.796875 0 L 0.796875 -8 L 5.875 -8 L 5.875 -6.5625 Z M 2.3125 -6.5625 "/></g></g></g><g fill="#333b66" fill-opacity="1"><g transform="translate(73.060451, 26.88242)"><g><path d="M 0.796875 -8 L 3.71875 -8 C 4.125 -8 4.488281 -7.9375 4.8125 -7.8125 C 5.144531 -7.6875 5.425781 -7.507812 5.65625 -7.28125 C 5.894531 -7.0625 6.078125 -6.796875 6.203125 -6.484375 C 6.328125 -6.171875 6.390625 -5.832031 6.390625 -5.46875 C 6.390625 -5.207031 6.34375 -4.957031 6.25 -4.71875 C 6.164062 -4.488281 6.046875 -4.273438 5.890625 -4.078125 C 5.734375 -3.890625 5.550781 -3.722656 5.34375 -3.578125 C 5.132812 -3.429688 4.914062 -3.316406 4.6875 -3.234375 L 4.671875 -3.15625 L 6.8125 -0.09375 L 6.8125 0 L 5.078125 0 L 3.015625 -3 L 2.3125 -3 L 2.3125 0 L 0.796875 0 Z M 3.703125 -4.390625 C 4.046875 -4.390625 4.328125 -4.492188 4.546875 -4.703125 C 4.765625 -4.910156 4.875 -5.175781 4.875 -5.5 C 4.875 -5.632812 4.847656 -5.769531 4.796875 -5.90625 C 4.753906 -6.039062 4.6875 -6.160156 4.59375 -6.265625 C 4.5 -6.367188 4.378906 -6.453125 4.234375 -6.515625 C 4.085938 -6.578125 3.921875 -6.609375 3.734375 -6.609375 L 2.3125 -6.609375 L 2.3125 -4.390625 Z M 3.703125 -4.390625 "/></g></g></g><g fill="#333b66" fill-opacity="1"><g transform="translate(79.985237, 26.88242)"><g><path d="M 0 0 Z M 0 0 "/></g></g></g><g fill="#333b66" fill-opacity="1"><g transform="translate(82.442418, 26.88242)"><g><path d="M 3.734375 0.171875 C 3.265625 0.171875 2.835938 0.0976562 2.453125 -0.046875 C 2.066406 -0.203125 1.738281 -0.425781 1.46875 -0.71875 C 1.207031 -1.007812 1 -1.359375 0.84375 -1.765625 C 0.695312 -2.179688 0.625 -2.65625 0.625 -3.1875 L 0.625 -8 L 2.140625 -8 L 2.140625 -3.09375 C 2.140625 -2.820312 2.171875 -2.570312 2.234375 -2.34375 C 2.296875 -2.125 2.394531 -1.929688 2.53125 -1.765625 C 2.664062 -1.609375 2.832031 -1.484375 3.03125 -1.390625 C 3.238281 -1.296875 3.472656 -1.25 3.734375 -1.25 C 4.003906 -1.25 4.238281 -1.296875 4.4375 -1.390625 C 4.632812 -1.484375 4.800781 -1.609375 4.9375 -1.765625 C 5.070312 -1.929688 5.171875 -2.125 5.234375 -2.34375 C 5.304688 -2.570312 5.34375 -2.820312 5.34375 -3.09375 L 5.34375 -8 L 6.84375 -8 L 6.84375 -3.1875 C 6.84375 -2.6875 6.769531 -2.226562 6.625 -1.8125 C 6.476562 -1.40625 6.269531 -1.050781 6 -0.75 C 5.726562 -0.457031 5.398438 -0.226562 5.015625 -0.0625 C 4.640625 0.09375 4.210938 0.171875 3.734375 0.171875 Z M 3.734375 0.171875 "/></g></g></g><g fill="#333b66" fill-opacity="1"><g transform="translate(89.914487, 26.88242)"><g><path d="M 0.796875 0 L 0.796875 -8 L 3.625 -8 C 4 -8 4.351562 -7.9375 4.6875 -7.8125 C 5.019531 -7.6875 5.304688 -7.507812 5.546875 -7.28125 C 5.796875 -7.0625 5.988281 -6.796875 6.125 -6.484375 C 6.269531 -6.179688 6.34375 -5.84375 6.34375 -5.46875 C 6.34375 -5.09375 6.269531 -4.75 6.125 -4.4375 C 5.988281 -4.132812 5.796875 -3.867188 5.546875 -3.640625 C 5.304688 -3.421875 5.019531 -3.25 4.6875 -3.125 C 4.351562 -3 4 -2.9375 3.625 -2.9375 L 2.3125 -2.9375 L 2.3125 0 Z M 3.640625 -4.375 C 4.035156 -4.375 4.332031 -4.484375 4.53125 -4.703125 C 4.738281 -4.921875 4.84375 -5.175781 4.84375 -5.46875 C 4.84375 -5.613281 4.816406 -5.753906 4.765625 -5.890625 C 4.710938 -6.023438 4.632812 -6.140625 4.53125 -6.234375 C 4.4375 -6.335938 4.3125 -6.414062 4.15625 -6.46875 C 4.007812 -6.53125 3.835938 -6.5625 3.640625 -6.5625 L 2.3125 -6.5625 L 2.3125 -4.375 Z M 3.640625 -4.375 "/></g></g></g><g fill="#333b66" fill-opacity="1"><g transform="translate(96.526541, 26.88242)"><g><path d="M 0.796875 -8 L 3.515625 -8 C 4.140625 -8 4.707031 -7.898438 5.21875 -7.703125 C 5.726562 -7.515625 6.160156 -7.242188 6.515625 -6.890625 C 6.867188 -6.535156 7.140625 -6.109375 7.328125 -5.609375 C 7.523438 -5.117188 7.625 -4.582031 7.625 -4 C 7.625 -3.40625 7.523438 -2.859375 7.328125 -2.359375 C 7.140625 -1.867188 6.867188 -1.445312 6.515625 -1.09375 C 6.160156 -0.75 5.726562 -0.476562 5.21875 -0.28125 C 4.707031 -0.09375 4.140625 0 3.515625 0 L 0.796875 0 Z M 3.4375 -1.4375 C 3.875 -1.4375 4.257812 -1.492188 4.59375 -1.609375 C 4.9375 -1.734375 5.21875 -1.90625 5.4375 -2.125 C 5.664062 -2.351562 5.832031 -2.625 5.9375 -2.9375 C 6.050781 -3.257812 6.109375 -3.613281 6.109375 -4 C 6.109375 -4.382812 6.050781 -4.734375 5.9375 -5.046875 C 5.832031 -5.367188 5.664062 -5.640625 5.4375 -5.859375 C 5.21875 -6.085938 4.9375 -6.257812 4.59375 -6.375 C 4.257812 -6.5 3.875 -6.5625 3.4375 -6.5625 L 2.3125 -6.5625 L 2.3125 -1.4375 Z M 3.4375 -1.4375 "/></g></g></g><g fill="#333b66" fill-opacity="1"><g transform="translate(104.557062, 26.88242)"><g><path d="M 3.140625 -8 L 4.859375 -8 L 7.859375 0 L 6.203125 0 L 5.546875 -1.90625 L 2.453125 -1.90625 L 1.796875 0 L 0.140625 0 Z M 5.046875 -3.296875 L 4.328125 -5.296875 L 4.046875 -6.265625 L 3.953125 -6.265625 L 3.671875 -5.296875 L 2.953125 -3.296875 Z M 5.046875 -3.296875 "/></g></g></g><g fill="#333b66" fill-opacity="1"><g transform="translate(112.554072, 26.88242)"><g><path d="M 2.5 0 L 2.5 -6.5625 L 0.265625 -6.5625 L 0.265625 -8 L 6.25 -8 L 6.25 -6.5625 L 4.015625 -6.5625 L 4.015625 0 Z M 2.5 0 "/></g></g></g><g fill="#333b66" fill-opacity="1"><g transform="translate(119.065605, 26.88242)"><g><path d="M 2.3125 -6.5625 L 2.3125 -4.71875 L 5.515625 -4.71875 L 5.515625 -3.28125 L 2.3125 -3.28125 L 2.3125 -1.4375 L 5.875 -1.4375 L 5.875 0 L 0.796875 0 L 0.796875 -8 L 5.875 -8 L 5.875 -6.5625 Z M 2.3125 -6.5625 "/></g></g></g><g fill="#333b66" fill-opacity="1"><g transform="translate(125.521298, 26.88242)"><g><path d="M 0.796875 -8 L 3.71875 -8 C 4.125 -8 4.488281 -7.9375 4.8125 -7.8125 C 5.144531 -7.6875 5.425781 -7.507812 5.65625 -7.28125 C 5.894531 -7.0625 6.078125 -6.796875 6.203125 -6.484375 C 6.328125 -6.171875 6.390625 -5.832031 6.390625 -5.46875 C 6.390625 -5.207031 6.34375 -4.957031 6.25 -4.71875 C 6.164062 -4.488281 6.046875 -4.273438 5.890625 -4.078125 C 5.734375 -3.890625 5.550781 -3.722656 5.34375 -3.578125 C 5.132812 -3.429688 4.914062 -3.316406 4.6875 -3.234375 L 4.671875 -3.15625 L 6.8125 -0.09375 L 6.8125 0 L 5.078125 0 L 3.015625 -3 L 2.3125 -3 L 2.3125 0 L 0.796875 0 Z M 3.703125 -4.390625 C 4.046875 -4.390625 4.328125 -4.492188 4.546875 -4.703125 C 4.765625 -4.910156 4.875 -5.175781 4.875 -5.5 C 4.875 -5.632812 4.847656 -5.769531 4.796875 -5.90625 C 4.753906 -6.039062 4.6875 -6.160156 4.59375 -6.265625 C 4.5 -6.367188 4.378906 -6.453125 4.234375 -6.515625 C 4.085938 -6.578125 3.921875 -6.609375 3.734375 -6.609375 L 2.3125 -6.609375 L 2.3125 -4.390625 Z M 3.703125 -4.390625 "/></g></g></g></svg>